<?xml version="1.0" encoding="UTF-8" standalone="yes"?>
<svg version="1.2" width="1200" height="1200" viewBox="0 0 1200 1200" baseProfile="tiny-ps" xmlns="http://www.w3.org/2000/svg">
  <title>bimi-svg-tiny-12-ps</title>
  <path d="M0 0 C396 0 792 0 1200 0 C1200 396 1200 792 1200 1200 C804 1200 408 1200 0 1200 C0 804 0 408 0 0 Z " fill="#FEFEFE" transform="translate(0,0)"/>
  <path d="M0 0 C0.84433594 0.31066406 1.68867187 0.62132812 2.55859375 0.94140625 C16.61711658 6.52973172 28.60514658 17.36234337 38 29 C38.83724609 30.01126953 38.83724609 30.01126953 39.69140625 31.04296875 C41 33 41 33 41 36 C40.28714844 35.855625 39.57429687 35.71125 38.83984375 35.5625 C28.04931485 33.47119965 20.42094973 33.48870322 10.828125 39.3203125 C3.02489942 44.85515855 -2.53891916 52.04910411 -6.875 60.5 C-7.51042725 61.73085327 -7.51042725 61.73085327 -8.15869141 62.98657227 C-16.95089162 80.51034812 -22.61934734 99.49666797 -28.66357422 118.09936523 C-31.38237462 126.426243 -34.32731657 134.58026941 -37.68432617 142.67260742 C-39.40406756 147.02190329 -40.73960432 151.44829012 -42.06640625 155.9296875 C-43.89872145 161.95562788 -46.06989405 167.84215419 -48.5625 173.625 C-49.99125551 176.97946946 -51.12613688 180.34317746 -52.24609375 183.80859375 C-52.91870208 185.76368844 -53.73204145 187.66905451 -54.5625 189.5625 C-56.10116827 192.98184584 -56.10116827 192.98184584 -56.8828125 196.70703125 C-57.93835429 201.05235327 -59.54357165 205.02762824 -61.3125 209.125 C-63.45763539 214.20862426 -65.50889789 219.28243674 -67.3125 224.5 C-70.06685657 232.39704225 -73.21062732 240.13250915 -76.3425293 247.88623047 C-78.5175894 253.27406864 -80.63622676 258.66602039 -82.625 264.125 C-90.7567071 285.18838021 -103.3437878 301.04743156 -124.12109375 310.8125 C-136.96048307 316.10853033 -155.12132415 316.09539807 -167.94921875 310.77734375 C-190.37660769 300.22493365 -203.19143794 279.63658518 -211.51953125 256.98046875 C-211.95509724 255.71771512 -212.38616105 254.45339872 -212.8125 253.1875 C-213.15571289 252.22553711 -213.15571289 252.22553711 -213.50585938 251.24414062 C-214.65827285 247.836239 -215.40069785 245.41151563 -214 242 C-213.49210938 242.61488281 -212.98421875 243.22976563 -212.4609375 243.86328125 C-206.15671262 251.37627606 -206.15671262 251.37627606 -197.08984375 254.375 C-188.82449728 254.83901945 -183.41809479 253.22375008 -177 248 C-170.25767017 241.41090494 -166.37440726 232.36771242 -163.0625 223.66015625 C-161.82661598 220.5659025 -160.42277949 217.57523557 -159 214.5625 C-156.74263051 209.7317293 -154.81551733 204.89738365 -153.05859375 199.8671875 C-151.84579818 196.58234635 -150.4663311 193.3952362 -149.0625 190.1875 C-147.01529303 185.48764641 -145.1742125 180.78248795 -143.5 175.9375 C-141.88614946 171.28794989 -140.06552369 166.87488273 -137.9375 162.4375 C-135.4100201 157.12331149 -133.55989198 151.8255548 -131.95703125 146.16796875 C-129.56227783 138.24084621 -126.25828406 130.6112427 -123.13671875 122.94921875 C-120.6969612 116.90203757 -118.47958384 110.79199858 -116.30322266 104.64550781 C-84.85413998 16.67291462 -84.85413998 16.67291462 -50.0625 -0.4453125 C-33.87577043 -7.97902972 -16.3325556 -6.59032945 0 0 Z " fill="#B2B5B2" transform="translate(732,364)"/>
  <path d="M0 0 C5.07553339 1.64178989 9.03421817 4.6645197 13.3125 7.75 C14.03373047 8.26304687 14.75496094 8.77609375 15.49804688 9.3046875 C19.80163933 12.37702795 24.04939231 15.516656 28.26245117 18.71191406 C29.80666936 19.85667943 31.40057996 20.93371997 33 22 C33 22.66 33 23.32 33 24 C33.59224365 24.11915771 34.1844873 24.23831543 34.79467773 24.36108398 C38.38835793 25.4022288 41.12003342 27.82901679 44.0625 30.0625 C45.40612295 31.06527442 46.74987396 32.06787728 48.09375 33.0703125 C48.75503906 33.56692383 49.41632813 34.06353516 50.09765625 34.57519531 C52.73646266 36.55159087 55.39716539 38.49707782 58.0625 40.4375 C58.92617188 41.06785156 59.78984375 41.69820313 60.6796875 42.34765625 C62.6512897 43.751676 64.64489521 45.07818347 66.6875 46.375 C67.450625 46.91125 68.21375 47.4475 69 48 C69 48.66 69 49.32 69 50 C69.515625 50.0825 70.03125 50.165 70.5625 50.25 C74.04455732 51.32140225 76.87200885 53.13523605 80 55 C80 55.99 80 56.98 80 58 C80.58193115 58.1124707 81.1638623 58.22494141 81.76342773 58.34082031 C85.75381319 59.51689724 88.77913402 62.26752707 92.0625 64.75 C92.78244141 65.2759375 93.50238281 65.801875 94.24414062 66.34375 C98.05607888 69.20358854 100.9034602 71.5948191 103 76 C103.33 75.34 103.66 74.68 104 74 C107 74 107 74 109.1953125 76.125 C109.62618164 76.58261719 110.05705078 77.04023438 110.50097656 77.51171875 C113.35054941 80.34087121 116.64781366 82.62334314 119.875 85 C120.89787109 85.76183594 120.89787109 85.76183594 121.94140625 86.5390625 C123.95473485 88.03467803 125.97613403 89.51868541 128 91 C128.64743164 91.47953125 129.29486328 91.9590625 129.96191406 92.453125 C132.6235709 94.40006473 134.85083667 95.95027889 138 97 C138.33 99.64 138.66 102.28 139 105 C139.66 105 140.32 105 141 105 C140.67 103.35 140.34 101.7 140 100 C146.03837983 103.6544904 151.81791375 107.52147184 157.375 111.875 C166.21513272 118.79629303 175.4020265 125.16593768 185 131 C184.39891424 136.65020618 182.92471317 141.66164461 181 147 C180.34 147 179.68 147 179 147 C179.20625 147.73089844 179.4125 148.46179688 179.625 149.21484375 C180.0703631 152.52259264 179.53858722 153.64399236 178 156.5625 C175.27490873 162.13550356 173.20529809 167.83165601 171.1875 173.6875 C170.87361328 174.59765869 170.55972656 175.50781738 170.23632812 176.44555664 C169.48683309 178.62902181 168.74118822 180.81370358 168 183 C167.34 183 166.68 183 166 183 C166.06445312 184.01320313 166.12890625 185.02640625 166.1953125 186.0703125 C165.97541339 190.49468259 164.89151133 192.95546066 162.875 196.875 C160.08922497 202.4944328 157.70462894 208.14415262 155.625 214.0625 C155.37476074 214.7642334 155.12452148 215.4659668 154.86669922 216.18896484 C153.51426471 220.1034122 152.55067953 223.89551654 152 228 C151.34 228 150.68 228 150 228 C149.6596875 229.36125 149.6596875 229.36125 149.3125 230.75 C148.01678197 235.32203361 146.1007557 239.61057686 144.2421875 243.9765625 C142.61798685 247.92980558 141.28988438 251.92668091 140 256 C139.34 256 138.68 256 138 256 C137.89429688 257.01191406 137.78859375 258.02382813 137.6796875 259.06640625 C136.98361157 263.09484569 135.80517367 266.22189205 134.125 269.9375 C132.40584483 273.7697306 130.75109264 277.56857092 129.4375 281.5625 C127.79017816 285.50174787 126.18279266 287.24731446 123 290 C122.34 289.67 121.68 289.34 121 289 C121 290.32 121 291.64 121 293 C114.47632332 296.01645234 107.51853619 295.70370724 100.5625 294.3125 C93.62695197 290.76014613 91.59299163 285.28368809 89.25 278.3125 C88.65160242 276.60006436 88.05267006 274.88781548 87.453125 273.17578125 C87.19692383 272.42208252 86.94072266 271.66838379 86.67675781 270.8918457 C86.02423469 268.94861925 86.02423469 268.94861925 85 267 C84.86584528 264.3276379 84.95681459 261.67749512 85 259 C84.34 259 83.68 259 83 259 C82.03781983 256.1679225 81.0801792 253.33443873 80.125 250.5 C79.85558594 249.70851563 79.58617187 248.91703125 79.30859375 248.1015625 C78.07625654 244.43460789 76.91198136 240.797615 76.0234375 237.03125 C74.87309138 232.22876443 73.17972231 227.6385637 71.5 223 C65.58363069 206.66190901 65.58363069 206.66190901 66 200 C65.01 200 64.02 200 63 200 C62.84144531 199.33097656 62.68289063 198.66195312 62.51953125 197.97265625 C59.41713991 185.20314494 55.6989048 172.71627479 51.20703125 160.3671875 C49.95883961 156.88517715 48.76529597 153.39385147 47.625 149.875 C47.28726563 148.84117187 46.94953125 147.80734375 46.6015625 146.7421875 C45.99958226 143.99809574 46.04187935 142.60061318 47 140 C46.34 140 45.68 140 45 140 C44.72027344 139.07703125 44.44054687 138.1540625 44.15234375 137.203125 C41.74549559 129.34430034 39.18265446 121.55996868 36.4375 113.8125 C34.07885744 107.1558584 31.84044177 100.49596288 29.82421875 93.7265625 C29.23206435 91.76768206 28.5815883 89.82608167 27.89453125 87.8984375 C27 85 27 85 27 81 C26.34 81 25.68 81 25 81 C24.90058105 80.40936768 24.80116211 79.81873535 24.69873047 79.21020508 C23.46315206 72.43566741 21.47027608 66.15175854 19.125 59.6875 C18.40057006 57.65167195 17.67789877 55.6152172 16.95703125 53.578125 C16.61494629 52.61197266 16.27286133 51.64582031 15.92041016 50.65039062 C14.46229044 46.45162467 13.19133077 42.20857694 11.921875 37.94921875 C10.89883491 34.67635743 9.74132126 31.46992843 8.5625 28.25 C5.21380716 19.02295163 2.27696183 9.55333986 0 0 Z " fill="#FED8DE" transform="translate(431,286)"/>
  <path d="M0 0 C5.39594178 6.74110574 7.43016548 15.21973448 9.86328125 23.375 C11.15117529 27.48209852 12.59750784 31.51613864 14.0625 35.5625 C16.13701417 41.32177989 17.84198246 47.02803863 19.23046875 52.99609375 C20.28130123 57.09807433 21.65199847 61.07310278 23.02148438 65.078125 C25.14030805 71.31442395 26.98102299 77.62095376 28.81640625 83.9453125 C29.84132768 87.47513861 30.9101144 90.98960542 32 94.5 C32.31453125 95.52996094 32.6290625 96.55992187 32.953125 97.62109375 C33.73436224 100.14262438 34.53895446 102.65147478 35.359375 105.16015625 C35.82341234 106.6274475 36.28695858 108.09489416 36.75 109.5625 C36.97300781 110.2225 37.19601562 110.8825 37.42578125 111.5625 C41.18327992 123.68575042 38.23586722 133.56655664 33.5 144.875 C32.94322457 146.24894306 32.38889083 147.62387794 31.83691406 148.99975586 C31.00729394 151.06692456 30.17638573 153.1334329 29.33770752 155.19694519 C27.0050141 160.93740664 24.83794949 166.72846043 22.75 172.5625 C22.43611328 173.43438965 22.12222656 174.3062793 21.79882812 175.20458984 C21.1766475 176.93434252 20.55553901 178.66448124 19.93554688 180.39501953 C18.30495637 184.93531199 16.65091923 189.46706919 15 194 C14.3371481 195.8228834 13.67438766 197.64580007 13.01171875 199.46875 C11.64042182 203.2399842 10.26786818 207.01075823 8.89453125 210.78125 C8.5490625 211.73016113 8.20359375 212.67907227 7.84765625 213.65673828 C7.1617764 215.54064317 6.4755824 217.42443373 5.7890625 219.30810547 C4.39830556 223.12925139 3.0099101 226.95046174 1.66796875 230.7890625 C-1.00929111 238.43581808 -3.9496068 245.95058372 -6.98168945 253.46166992 C-9.11806413 258.76300676 -11.19419524 264.08073919 -13.1875 269.4375 C-13.4261377 270.07872803 -13.66477539 270.71995605 -13.91064453 271.38061523 C-14.14380371 272.00782471 -14.37696289 272.63503418 -14.6171875 273.28125 C-16.00203485 277.00547226 -17.39968047 280.72380294 -18.8125 284.4375 C-19.21082031 285.48808594 -19.60914063 286.53867187 -20.01953125 287.62109375 C-21 290 -21 290 -22 291 C-24.67787973 291.09512944 -27.32988869 291.12555279 -30.00805664 291.11352539 C-30.84700974 291.11367142 -31.68596283 291.11381744 -32.55033875 291.1139679 C-35.33697044 291.1132685 -38.12353616 291.10547485 -40.91015625 291.09765625 C-42.83686791 291.09579217 -44.76358005 291.09436822 -46.69029236 291.09336853 C-51.77187397 291.08954259 -56.8534272 291.07971166 -61.93499756 291.06866455 C-67.11616634 291.05845206 -72.29733969 291.05387126 -77.47851562 291.04882812 C-87.65235625 291.03808946 -97.82617577 291.02101213 -108 291 C-107.20646538 286.66843064 -105.81377341 282.80203424 -104.125 278.75 C-101.66867127 272.75218458 -101.66867127 272.75218458 -99.5625 266.625 C-98.14641491 262.15627641 -96.31258553 257.88095127 -94.5 253.5625 C-92.27841428 248.25413959 -90.27443258 243.01940546 -88.71875 237.47265625 C-85.6838481 227.03193394 -81.43283551 216.99392899 -77.21044922 206.99121094 C-75.04763497 201.80909672 -73.1972668 196.66250014 -71.69775391 191.24902344 C-70.96790683 188.89655624 -70.04049958 186.73071506 -69 184.5 C-67.62244052 181.52818628 -66.55676179 178.65707348 -65.6875 175.5 C-64.09187678 169.86683296 -61.81239338 164.56337014 -59.54980469 159.17431641 C-57.77773327 154.93769392 -56.17382184 150.71865853 -54.796875 146.3359375 C-53.71805155 143.17350404 -52.44828354 140.09298992 -51.1875 137 C-48.92724426 131.44580482 -46.84481713 125.8511162 -44.875 120.1875 C-43.04928238 114.93878037 -41.14983569 109.75082748 -39.046875 104.60546875 C-35.82473108 96.58617773 -32.88225412 88.44999507 -29.94140625 80.32421875 C-29.58852539 79.34936523 -29.23564453 78.37451172 -28.87207031 77.37011719 C-28.1805442 75.45615136 -27.4909992 73.54146825 -26.80371094 71.62597656 C-25.40537428 67.75138946 -23.99674955 63.90683259 -22.34375 60.1328125 C-21.23698277 57.55250052 -20.39862909 55.1417256 -19.6875 52.4375 C-18.44660089 48.12389833 -16.80657252 44.10827973 -15 40 C-12.93530989 35.29372107 -11.22064527 30.71160177 -9.84375 25.76953125 C-8.71315393 22.05845435 -7.36538794 18.44273765 -6 14.8125 C-5.75056641 14.14686035 -5.50113281 13.4812207 -5.24414062 12.79541016 C-3.60784187 8.47811534 -1.84451338 4.23249945 0 0 Z " fill="#F22E40" transform="translate(430,347)"/>
  <path d="M0 0 C0.969375 0.7425 1.93875 1.485 2.9375 2.25 C3.48019531 2.6625 4.02289062 3.075 4.58203125 3.5 C13.42820181 11.1680124 19.31825816 25.79658719 22.3125 36.9375 C23.39930741 40.68783024 24.7113846 44.22403598 26.25 47.8125 C28.36411343 52.75392174 30.22901842 57.74115421 32 62.8125 C32.25700684 63.54799072 32.51401367 64.28348145 32.77880859 65.04125977 C33.49990781 67.1103097 34.2189412 69.18006672 34.9375 71.25 C37.49638822 78.58482845 40.37276187 85.74569444 43.36645508 92.91088867 C45.481087 98.01845051 47.29658562 103.16698055 48.98046875 108.43359375 C50.33459026 112.41857992 52.00249374 116.25126207 53.65234375 120.12109375 C55.49626406 124.61039518 57.08301158 129.18128133 58.6953125 133.7578125 C61.44887363 141.49895606 64.45831426 149.12748033 67.62939453 156.70581055 C70.09480713 162.60228793 72.37381761 168.37185365 74.06640625 174.54296875 C75.27934368 178.31232138 76.83412884 181.91713166 78.375 185.5625 C81.3726591 192.67764236 83.81289882 199.82289841 85.9375 207.25 C86.9275 210.55 87.9175 213.85 88.9375 217.25 C60.2275 217.25 31.5175 217.25 1.9375 217.25 C-9.5019909 190.93917093 -9.5019909 190.93917093 -13.2734375 180.44335938 C-14.19518115 177.88118582 -15.12857586 175.32338341 -16.0625 172.765625 C-17.42301941 169.0365055 -18.78027666 165.30624127 -20.1328125 161.57421875 C-20.60775146 160.26469238 -20.60775146 160.26469238 -21.09228516 158.92871094 C-21.75493143 157.09918027 -22.41599401 155.26907542 -23.07568359 153.43847656 C-25.11356139 147.7988819 -27.23168534 142.20075585 -29.4375 136.625 C-31.74649023 130.74655925 -33.9385505 124.84454081 -36 118.875 C-38.45746269 111.77511116 -41.20103273 104.81462952 -44.0222168 97.85229492 C-47.01230532 90.44680181 -49.8054229 82.97931561 -52.51953125 75.46875 C-53.43234369 72.94492727 -54.38176369 70.45890414 -55.38671875 67.96875 C-58.79000746 59.46649889 -59.43391253 53.01943464 -55.875 44.4375 C-54.9375 42.375 -54 40.3125 -53.0625 38.25 C-52.21343281 36.08945058 -51.38015688 33.92263115 -50.5625 31.75 C-50.14742187 30.67234375 -49.73234375 29.5946875 -49.3046875 28.484375 C-48.48620189 26.35322379 -47.67862072 24.21784775 -46.8828125 22.078125 C-43.31540823 12.8914761 -38.1963082 5.97616201 -31.0625 -0.75 C-30.4025 -1.41 -29.7425 -2.07 -29.0625 -2.75 C-18.46623885 -6.15594108 -9.63447797 -5.50541598 0 0 Z " fill="#F22E40" transform="translate(779.0625,420.75)"/>
  <path d="M0 0 C13.30153737 7.3508496 20.52450377 21.70551553 27.9375 34.375 C28.6168171 35.52886398 29.29650356 36.68251059 29.9765625 37.8359375 C33.79115681 44.31632938 37.57922018 50.81196723 41.35180664 57.31689453 C44.09336958 61.95581319 46.99740447 66.48508008 49.9375 71 C50.56527344 71.96808594 51.19304687 72.93617188 51.83984375 73.93359375 C62.10163356 91.43111885 62.10163356 91.43111885 78.4375 101.875 C79.2625 101.91625 80.0875 101.9575 80.9375 102 C86.15849148 94.66276665 84.73697645 85.27000195 83.44824219 76.77490234 C80.88344777 62.32083364 77.28990513 48.41745535 71.69091797 34.84326172 C71.0327213 33.23296202 70.42053371 31.6040109 69.81640625 29.97265625 C66.06392127 19.57767824 66.06392127 19.57767824 58.89453125 11.66015625 C56.86244245 10.73774204 56.86244245 10.73774204 54.625 11.9375 C48.31043306 16.783563 43.75855521 22.37323195 39.3203125 28.9609375 C37.9375 31 37.9375 31 36.9375 32 C30.3375 31.4 30.3375 31.4 27.9375 29 C27.33957763 23.53245985 27.57599208 20.52514188 31.0871582 16.02880859 C31.532771 15.50367676 31.97838379 14.97854492 32.4375 14.4375 C32.89020264 13.87885254 33.34290527 13.32020508 33.80932617 12.74462891 C39.00688908 6.4688433 45.62125651 -1.26144803 54.05859375 -2.43359375 C65.25035769 -2.44677604 65.25035769 -2.44677604 69.9375 2 C77.4756767 10.00931275 81.518469 20.31957139 85.1875 30.5 C85.620625 31.65886719 86.05375 32.81773437 86.5 34.01171875 C88.65550473 39.89944001 90.44368779 45.61678668 91.53417969 51.79248047 C92.12494576 55.02595918 93.03781661 58.15306498 93.9375 61.3125 C98.32832765 77.37282786 100.83667889 93.98315412 93.25 109.4375 C89.64077657 113.43690975 86.00223734 115.74961296 80.546875 116.1953125 C71.3869523 115.7056311 63.46648618 111.29443736 56.9375 105 C55.04808416 102.80230384 53.36093182 100.48978672 51.6875 98.125 C51.21787842 97.47225098 50.74825684 96.81950195 50.2644043 96.14697266 C41.10317611 83.32463316 31.65665415 70.07325936 24.86328125 55.828125 C23.51043267 53.15667717 21.90798441 50.66388978 20.28125 48.15234375 C19.17952043 46.38765481 18.13585306 44.58684034 17.109375 42.77734375 C7.35881304 24.03451287 7.35881304 24.03451287 -8.0625 11 C-10.12849083 10.93245166 -10.12849083 10.93245166 -12.0625 12 C-15.50059684 15.76922502 -17.58773198 19.84694586 -19.5625 24.5 C-19.86655762 25.20632568 -20.17061523 25.91265137 -20.48388672 26.64038086 C-22.71319905 31.92562453 -24.53202734 37.25714104 -26.1015625 42.77734375 C-27.0625 46 -27.0625 46 -28.2734375 49.19140625 C-31.43654149 57.61676507 -33.08047968 65.93073008 -34.4375 74.8125 C-34.61732422 75.95734863 -34.79714844 77.10219727 -34.98242188 78.28173828 C-36.13717879 86.39685142 -37.17006437 94.58432305 -33.0625 102 C-26.53495296 101.72801887 -22.7277288 99.53491514 -18.0625 95 C-12.40035648 88.43958416 -7.89409559 81.25385652 -3.52124023 73.80810547 C-0.70170545 69.01557307 2.24850469 64.3275853 5.3125 59.6875 C5.72943115 59.04707764 6.1463623 58.40665527 6.57592773 57.74682617 C8.52681399 54.81830925 9.97129195 52.97747204 12.9375 51 C16 50.75 16 50.75 18.9375 51 C20.9375 53 20.9375 53 21.4375 55.9375 C21.20363655 61.67884769 17.86678369 66.24150739 14.9375 71 C14.49760742 71.72396973 14.05771484 72.44793945 13.60449219 73.19384766 C7.8948097 82.55872258 2.14549098 91.69942933 -5.0625 100 C-5.70574219 100.79792969 -6.34898437 101.59585938 -7.01171875 102.41796875 C-12.71899993 109.29137417 -19.26627871 113.89655578 -28.0625 116 C-33.32480149 116.46984835 -36.6201146 115.89720787 -41.0625 113 C-47.2357286 106.97033485 -49.13483794 100.74684701 -49.41552734 92.16259766 C-49.50477284 83.37885746 -48.3930775 75.00457404 -46.57299805 66.41870117 C-46.18348258 64.57320631 -45.81351198 62.7235752 -45.45239258 60.87231445 C-43.70532121 52.19282504 -41.2886064 43.9186718 -38.375 35.5625 C-38.15695709 34.93335693 -37.93891418 34.30421387 -37.71426392 33.65600586 C-28.20902564 6.36930099 -28.20902564 6.36930099 -17.3125 -0.8125 C-11.07002101 -3.09340579 -6.05281386 -2.75212427 0 0 Z " fill="#BFC3C0" transform="translate(277.0625,725)"/>
  <path d="M0 0 C11.199375 -0.12375 11.199375 -0.12375 22.625 -0.25 C24.95127441 -0.28641602 27.27754883 -0.32283203 29.67431641 -0.36035156 C55.24632017 -0.59479403 55.24632017 -0.59479403 65.5625 7.0625 C71.5250059 13.10194146 74.25494482 20.13945657 74.5625 28.5625 C74.11663521 38.21147135 71.13138232 44.82267831 64.02734375 51.37109375 C60.48399903 54.21805858 57.57928753 56 53 56 C58.36695335 64.67098401 64.19433229 72.89324931 70.28515625 81.06640625 C71.01605469 82.05511719 71.74695313 83.04382813 72.5 84.0625 C73.1703125 84.96097656 73.840625 85.85945312 74.53125 86.78515625 C76 89 76 89 76 91 C60.37782006 92.8200598 60.37782006 92.8200598 55.15234375 88.8203125 C53.26169938 86.23311494 51.59785421 83.63006858 50.05371094 80.82324219 C48.15910624 77.54499662 45.86072822 74.55070285 43.625 71.5 C42.80281953 70.34507752 41.98240407 69.18889577 41.1640625 68.03125 C39.88152915 66.2347773 38.57308283 64.455634 37.2109375 62.71875 C36 61 36 61 36 59 C29.07 59 22.14 59 15 59 C15 69.56 15 80.12 15 91 C10.05 91 5.1 91 0 91 C0 60.97 0 30.94 0 0 Z " fill="#030303" transform="translate(414,740)"/>
  <path d="M0 0 C5.28 0 10.56 0 16 0 C17.0209375 2.784375 17.0209375 2.784375 18.0625 5.625 C20.46469422 11.89663776 23.31893707 17.75653504 26.37890625 23.73828125 C28.09336112 27.18784706 29.53384853 30.66181093 30.9140625 34.25390625 C34.34335658 42.92582617 38.24728041 51.42597217 42.1875 59.875 C44.25977861 64.32575141 46.14841209 68.80247019 47.921875 73.37890625 C49.71487452 77.73797392 51.7836765 81.96907074 53.828125 86.21484375 C55 89 55 89 55 92 C49.39 92 43.78 92 38 92 C35.03 85.07 32.06 78.14 29 71 C14.81 70.67 0.62 70.34 -14 70 C-14.99 73.3 -15.98 76.6 -17 80 C-18.83162627 84.10890371 -20.9120056 88.00961071 -23 92 C-28.28 92 -33.56 92 -39 92 C-37.71692845 87.50924956 -36.67371744 83.96610576 -34.75 79.875 C-34.09451172 78.46541016 -34.09451172 78.46541016 -33.42578125 77.02734375 C-32.95527344 76.02832031 -32.48476563 75.02929688 -32 74 C-30.97657488 71.81371137 -29.95579232 69.62618401 -28.9375 67.4375 C-28.47214844 66.44621094 -28.00679687 65.45492187 -27.52734375 64.43359375 C-25.94530989 60.87705216 -24.50254646 57.28331006 -23.06860352 53.6652832 C-21.28074036 49.20604124 -19.39164622 44.79099322 -17.5 40.375 C-17.12230469 39.48554687 -16.74460937 38.59609375 -16.35546875 37.6796875 C-14.33032669 32.94739678 -12.19480151 28.31466505 -9.85742188 23.72900391 C-8.76855727 21.5332923 -7.86703912 19.29146053 -7 17 C-5.49269954 13.12748894 -3.78901603 9.453536 -1.83203125 5.7890625 C-0.78997606 3.69593056 -0.78997606 3.69593056 0 0 Z " fill="#060606" transform="translate(665,739)"/>
  <path d="M0 0 C22.11 0 44.22 0 67 0 C67 4.95 67 9.9 67 15 C50.17 15 33.34 15 16 15 C16 22.59 16 30.18 16 38 C30.85 38 45.7 38 61 38 C61 42.62 61 47.24 61 52 C46.15 52 31.3 52 16 52 C16 59.92 16 67.84 16 76 C33.16 76 50.32 76 68 76 C68 80.95 68 85.9 68 91 C45.56 91 23.12 91 0 91 C0 60.97 0 30.94 0 0 Z " fill="#080808" transform="translate(527,740)"/>
  <path d="M0 0 C12.7868819 -1.63901029 12.7868819 -1.63901029 19 0 C22.92322543 3.43939602 24.7999535 7.22218041 26.97119141 11.90332031 C28.77119003 15.57166112 31.03950422 18.94431706 33.25 22.375 C34.0493225 23.65211725 34.84626718 24.93072635 35.640625 26.2109375 C36.02412109 26.82420898 36.40761719 27.43748047 36.80273438 28.06933594 C37.65710652 29.44706328 38.5010396 30.83128688 39.33789062 32.21972656 C39.77810547 32.94385742 40.21832031 33.66798828 40.671875 34.4140625 C41.06987305 35.07615723 41.46787109 35.73825195 41.87792969 36.42041016 C42.9269886 38.15940697 42.9269886 38.15940697 45 39 C45.23460937 38.319375 45.46921875 37.63875 45.7109375 36.9375 C47.29084353 33.33722928 49.40454973 30.22386683 51.625 27 C55.6558452 21.05930545 59.49464907 15.04608015 63.2109375 8.90234375 C63.80132813 7.94457031 64.39171875 6.98679687 65 6 C65.54398438 4.89527344 66.08796875 3.79054688 66.6484375 2.65234375 C69 0 69 0 71.00341797 -0.47192383 C73.44632214 -0.5917344 75.80894638 -0.5237517 78.25 -0.375 C79.51070312 -0.33439453 79.51070312 -0.33439453 80.796875 -0.29296875 C82.86568634 -0.22244109 84.93317393 -0.11482367 87 0 C85.73691946 3.38378091 84.29419412 6.31928327 82.3125 9.3359375 C81.78366211 10.14530762 81.25482422 10.95467773 80.70996094 11.78857422 C79.86353027 13.06885498 79.86353027 13.06885498 79 14.375 C78.41766602 15.2633252 77.83533203 16.15165039 77.23535156 17.06689453 C73.06351383 23.42066054 68.85417779 29.74945123 64.609375 36.0546875 C64.23224365 36.64266113 63.8551123 37.23063477 63.46655273 37.83642578 C62.29377977 39.56659293 61.02983769 41.2348282 59.73852539 42.87841797 C52.28722246 52.75387293 51.72687657 61.27415468 51.9375 73.375 C51.93441687 75.09376215 51.92728008 76.81252199 51.91601562 78.53125 C51.88996739 82.69095222 51.94652601 86.83758442 52 91 C46.72 91 41.44 91 36 91 C36.03222656 88.56367187 36.06445312 86.12734375 36.09765625 83.6171875 C36.09824145 81.2073185 36.08338615 78.79799137 36.06713867 76.38818359 C36.0640924 74.73774442 36.07662159 73.08718862 36.10620117 71.43701172 C36.32191077 58.5336558 33.83437322 51.16909881 26 41 C24.85790988 39.27374716 23.73219487 37.53646232 22.62890625 35.78515625 C21.60726041 34.21061973 20.58512693 32.6363995 19.5625 31.0625 C19.01609863 30.22058105 18.46969727 29.37866211 17.90673828 28.51123047 C15.31306903 24.52288792 12.7057775 20.54548892 10.05078125 16.59765625 C9.59695068 15.92275146 9.14312012 15.24784668 8.67553711 14.55249023 C7.83990618 13.31402465 7.00113447 12.07766927 6.15844727 10.84399414 C3.79815637 7.35051991 1.80650191 3.80861231 0 0 Z " fill="#050505" transform="translate(937,740)"/>
  <path d="M0 0 C24.42 0 48.84 0 74 0 C74 4.95 74 9.9 74 15 C64.43 15 54.86 15 45 15 C45 40.08 45 65.16 45 91 C39.72 91 34.44 91 29 91 C29 65.92 29 40.84 29 15 C19.43 15 9.86 15 0 15 C0 10.05 0 5.1 0 0 Z " fill="#050505" transform="translate(836,740)"/>
  <path d="M0 0 C0 27.06 0 54.12 0 82 C-6.697138 81.16285775 -9.80563533 80.49745948 -15 76.9375 C-15.60593994 76.53192871 -16.21187988 76.12635742 -16.83618164 75.70849609 C-25.85727609 69.51894581 -31.40736642 62.32893846 -37 53 C-38.08474609 51.36611328 -38.08474609 51.36611328 -39.19140625 49.69921875 C-43.96518391 42.40315832 -47.34365118 35.08687053 -50.125 26.8125 C-50.58616211 25.44859131 -50.58616211 25.44859131 -51.05664062 24.05712891 C-53.31128681 16.96138959 -53.31128681 16.96138959 -52 13 C-51.49210938 13.61488281 -50.98421875 14.22976563 -50.4609375 14.86328125 C-44.15671262 22.37627606 -44.15671262 22.37627606 -35.08984375 25.375 C-26.82449728 25.83901945 -21.41809479 24.22375008 -15 19 C-10.63694087 14.73610131 -8.17264391 9.81723066 -5.4296875 4.390625 C-2.80392157 0 -2.80392157 0 0 0 Z " fill="#ACAEAB" transform="translate(570,593)"/>
  <path d="M0 0 C5.28 0 10.56 0 16 0 C16 25.41 16 50.82 16 77 C31.84 77 47.68 77 64 77 C64 81.62 64 86.24 64 91 C42.88 91 21.76 91 0 91 C0 60.97 0 30.94 0 0 Z " fill="#070707" transform="translate(755,740)"/>
  <path d="M0 0 C5.07553339 1.64178989 9.03421817 4.6645197 13.3125 7.75 C14.03373047 8.26304687 14.75496094 8.77609375 15.49804688 9.3046875 C19.80163933 12.37702795 24.04939231 15.516656 28.26245117 18.71191406 C29.80666936 19.85667943 31.40057996 20.93371997 33 22 C33.921875 24.265625 33.921875 24.265625 34.75 27.25 C35.08515625 28.40757812 35.4203125 29.56515625 35.765625 30.7578125 C35.95576172 31.41942383 36.14589844 32.08103516 36.34179688 32.76269531 C37.6584825 37.23825431 39.08531653 41.6796537 40.5 46.125 C40.95403198 47.55791382 40.95403198 47.55791382 41.41723633 49.01977539 C43.24945568 54.76616849 45.17317028 60.4552596 47.37109375 66.07421875 C48 68 48 68 48 71 C45.08573044 72.3178696 42.16819206 73.62834175 39.25 74.9375 C38.425 75.31068359 37.6 75.68386719 36.75 76.06835938 C35.95078125 76.42607422 35.1515625 76.78378906 34.328125 77.15234375 C33.5949707 77.48226318 32.86181641 77.81218262 32.10644531 78.15209961 C30.08507693 78.96575427 28.12433137 79.52769312 26 80 C25.58621094 78.74703125 25.17242187 77.4940625 24.74609375 76.203125 C23.23977761 71.6832931 21.67327533 67.18627513 20.0949707 62.69116211 C17.21374725 54.48352462 14.40651841 46.28585124 11.921875 37.94921875 C10.89883491 34.67635743 9.74132126 31.46992843 8.5625 28.25 C5.21380716 19.02295163 2.27696183 9.55333986 0 0 Z " fill="#F03042" transform="translate(431,286)"/>
  <path d="M0 0 C2.56265727 2.56265727 3.17962745 4.89007987 4.375 8.3125 C4.59414063 8.93769531 4.81328125 9.56289063 5.0390625 10.20703125 C6.81715834 15.33456344 8.40314031 20.51368961 9.96484375 25.7109375 C11.06964783 29.22129611 12.30097253 32.66803817 13.5625 36.125 C19 51.14525463 19 51.14525463 19 57 C15.54418685 58.50585523 12.08495247 60.00368289 8.625 61.5 C7.64015625 61.92925781 6.6553125 62.35851562 5.640625 62.80078125 C4.69960938 63.20683594 3.75859375 63.61289062 2.7890625 64.03125 C1.91975098 64.40830078 1.05043945 64.78535156 0.15478516 65.17382812 C-2 66 -2 66 -4 66 C-4.96305013 63.3349556 -5.92051716 60.66811249 -6.875 58 C-7.27912109 56.88431641 -7.27912109 56.88431641 -7.69140625 55.74609375 C-8.95322414 52.20684844 -10.11557891 48.70996149 -10.9765625 45.05078125 C-12.10745485 40.29303121 -13.81943076 35.77366078 -15.5 31.1875 C-18.01279433 24.1992935 -20.16630514 17.41818283 -21 10 C-14.17292585 6.10623147 -7.3777421 2.72064242 0 0 Z " fill="#F02F42" transform="translate(518,478)"/>
  <path d="M0 0 C3.65403835 10.18262795 7.18192271 20.31846683 10.03125 30.7578125 C11.38326878 35.28271407 13.14827014 39.61554133 14.89453125 44 C16.35443625 47.96186233 17.22701623 51.85399617 18 56 C15.48287811 57.29935464 12.96170913 58.58954372 10.4375 59.875 C9.73302734 60.23980469 9.02855469 60.60460937 8.30273438 60.98046875 C3.92534485 63.19942197 -0.23641861 64.81066956 -5 66 C-7.57632681 59.0523646 -10.02332501 52.14519401 -12 45 C-13.64980619 39.04606234 -15.6442557 33.28218638 -17.76171875 27.48046875 C-23 12.75709779 -23 12.75709779 -23 9 C-21.89140625 8.51789063 -20.7828125 8.03578125 -19.640625 7.5390625 C-18.17705887 6.90109778 -16.71351856 6.26307384 -15.25 5.625 C-14.15558594 5.14933594 -14.15558594 5.14933594 -13.0390625 4.6640625 C-12.33007812 4.3546875 -11.62109375 4.0453125 -10.890625 3.7265625 C-10.24125977 3.44377441 -9.59189453 3.16098633 -8.92285156 2.86962891 C-7.5734737 2.25935923 -6.24801199 1.5947124 -4.94433594 0.89208984 C-3 0 -3 0 0 0 Z " fill="#EF3042" transform="translate(500,419)"/>
  <path d="M0 0 C10.41040406 27.48941552 10.41040406 27.48941552 13.19140625 38.12109375 C14.29828927 42.06202507 15.79697943 45.81873475 17.36328125 49.59765625 C18.19210934 52.7248297 18.40094253 54.0330207 17 57 C14.20946325 58.82001811 11.20982374 60.01416923 8.125 61.25 C7.29613281 61.600625 6.46726562 61.95125 5.61328125 62.3125 C2.43275954 63.64842188 -0.72639952 64.90879984 -4 66 C-4.27972656 65.07703125 -4.55945313 64.1540625 -4.84765625 63.203125 C-7.25451115 55.34427833 -9.81780572 47.56014401 -12.5625 39.8125 C-16.15894864 29.64509634 -19.42524809 19.47890298 -22 9 C-20.96359375 8.51789063 -19.9271875 8.03578125 -18.859375 7.5390625 C-17.48956968 6.90107098 -16.11977877 6.26304852 -14.75 5.625 C-14.06808594 5.30789063 -13.38617188 4.99078125 -12.68359375 4.6640625 C-12.01972656 4.3546875 -11.35585938 4.0453125 -10.671875 3.7265625 C-10.02927734 3.42782227 -9.38667969 3.12908203 -8.72460938 2.82128906 C-7.36645831 2.17451384 -6.03006591 1.482042 -4.703125 0.7734375 C-3 0 -3 0 0 0 Z " fill="#F02F41" transform="translate(480,360)"/>
  <path d="M0 0 C1.125 2.11035156 1.125 2.11035156 2 4.890625 C2.32766357 5.90398926 2.65532715 6.91735352 2.99291992 7.96142578 C3.32525635 9.04665527 3.65759277 10.13188477 4 11.25 C4.52654175 12.89911377 4.52654175 12.89911377 5.0637207 14.58154297 C6.06019548 17.71583744 7.03491636 20.85591774 8 24 C8.22220215 24.72026367 8.4444043 25.44052734 8.67333984 26.18261719 C9.47860579 28.79814356 10.27411271 31.41604992 11.0546875 34.0390625 C12.55324521 38.73289203 14.35048579 43.31854431 16.14453125 47.90625 C17.51540907 52.86394512 17.51540907 52.86394512 16 56 C13.35401926 57.51882284 10.99929635 58.65283362 8.1875 59.75 C7.46240234 60.05292969 6.73730469 60.35585938 5.99023438 60.66796875 C2.68671779 62.02806249 -0.5153985 63.18942511 -4 64 C-7.38011976 56.40551816 -10.12840318 48.73870328 -12.52734375 40.78515625 C-13.6675247 37.02198532 -14.88841275 33.28987193 -16.12890625 29.55859375 C-16.49910889 28.43541748 -16.86931152 27.31224121 -17.25073242 26.1550293 C-17.9918499 23.91043309 -18.74054249 21.66832183 -19.49731445 19.42895508 C-20.00524536 17.87857544 -20.00524536 17.87857544 -20.5234375 16.296875 C-20.83200684 15.37229492 -21.14057617 14.44771484 -21.45849609 13.49511719 C-22.03976091 10.8167915 -22.13350836 9.4888706 -21 7 C-19.3894043 5.7956543 -19.3894043 5.7956543 -17.32421875 4.82421875 C-16.57849609 4.47166016 -15.83277344 4.11910156 -15.06445312 3.75585938 C-14.28005859 3.40330078 -13.49566406 3.05074219 -12.6875 2.6875 C-11.91470703 2.31560547 -11.14191406 1.94371094 -10.34570312 1.56054688 C-3.41084476 -1.64153304 -3.41084476 -1.64153304 0 0 Z " fill="#F03042" transform="translate(570,389)"/>
  <path d="M0 0 C1.69529843 2.54294765 2.60228132 4.38438884 3.5859375 7.2109375 C3.87476807 8.03682373 4.16359863 8.86270996 4.46118164 9.71362305 C4.7627417 10.59187744 5.06430176 11.47013184 5.375 12.375 C5.68880615 13.27968018 6.0026123 14.18436035 6.32592773 15.11645508 C8.33223714 20.94020287 10.20106422 26.79096923 11.95703125 32.6953125 C13.50703324 37.60655475 15.27369776 42.44033984 17.07055664 47.26635742 C18.33946673 50.75248648 19 53.24203074 19 57 C15.71411543 58.53356101 12.42046261 60.04964438 9.125 61.5625 C7.71927734 62.21895508 7.71927734 62.21895508 6.28515625 62.88867188 C5.38925781 63.29794922 4.49335937 63.70722656 3.5703125 64.12890625 C2.74289551 64.51119385 1.91547852 64.89348145 1.06298828 65.28735352 C0.38220215 65.52252686 -0.29858398 65.7577002 -1 66 C-3 65 -3 65 -3.97265625 62.5703125 C-4.33230469 61.43335938 -4.69195313 60.29640625 -5.0625 59.125 C-5.49790717 57.76927704 -5.9341802 56.413832 -6.37109375 55.05859375 C-6.62101074 54.27726074 -6.87092773 53.49592773 -7.12841797 52.69091797 C-9.29060125 46.01540421 -11.55506138 39.3728614 -13.78930664 32.72119141 C-15.48899513 27.63503871 -17.17434371 22.54456858 -18.7734375 17.42578125 C-19.01239746 16.66305908 -19.25135742 15.90033691 -19.49755859 15.11450195 C-20 13 -20 13 -20 9 C-13.34808703 5.96623035 -6.68707484 2.95552197 0 0 Z " fill="#EF3042" transform="translate(542,467)"/>
  <path d="M0 0 C0.81326448 2.45502311 1.52123462 4.87960855 2.1875 7.375 C4.0191413 13.94019077 6.14401675 20.31578899 8.5625 26.6875 C12.05872901 35.9430538 15.16562615 45.25264093 17 55 C-0.73786408 64 -0.73786408 64 -5 64 C-5.30292969 63.00742187 -5.60585938 62.01484375 -5.91796875 60.9921875 C-8.36175468 53.04618949 -10.96901159 45.19833959 -13.80859375 37.3828125 C-15.36808855 32.9548699 -16.73716963 28.48026791 -18.0859375 23.984375 C-19.12596468 20.58873072 -20.27909501 17.24250799 -21.484375 13.90234375 C-22 12 -22 12 -22 8 C-19.7941576 6.86988348 -17.58554973 5.74584212 -15.375 4.625 C-14.75753906 4.30789063 -14.14007813 3.99078125 -13.50390625 3.6640625 C-3.14242474 -1.57121237 -3.14242474 -1.57121237 0 0 Z " fill="#EF3042" transform="translate(505,350)"/>
  <path d="M0 0 C0.30292969 0.99257813 0.60585938 1.98515625 0.91796875 3.0078125 C3.36175468 10.95381051 5.96901159 18.80166041 8.80859375 26.6171875 C10.36851449 31.04633951 11.73830687 35.52195097 13.0859375 40.01953125 C14.11805761 43.38494855 15.27117603 46.69596875 16.484375 50 C17.0994163 52.38561475 17.08518379 54.5467069 17 57 C14.09191094 58.37316498 11.17239387 59.72008134 8.25 61.0625 C7.425 61.45244141 6.6 61.84238281 5.75 62.24414062 C4.55117188 62.79038086 4.55117188 62.79038086 3.328125 63.34765625 C2.5949707 63.68804932 1.86181641 64.02844238 1.10644531 64.37915039 C-1.40927671 65.12062942 -2.6164561 65.09212547 -5 64 C-5.92553711 62.38037109 -5.92553711 62.38037109 -6.52734375 60.2734375 C-6.87563232 59.10772217 -6.87563232 59.10772217 -7.23095703 57.91845703 C-7.46411621 57.07911621 -7.69727539 56.23977539 -7.9375 55.375 C-8.45327825 53.62986838 -8.97021921 51.88508001 -9.48828125 50.140625 C-9.74174316 49.26986328 -9.99520508 48.39910156 -10.25634766 47.50195312 C-11.29389826 44.01120505 -12.45283089 40.57298052 -13.625 37.125 C-16.63999568 28.14787461 -19.4151933 19.10945091 -22 10 C-16.66666667 7.33333333 -11.33333333 4.66666667 -6 2 C-5.30100586 1.62987793 -4.60201172 1.25975586 -3.88183594 0.87841797 C-2 0 -2 0 0 0 Z " fill="#EF3042" transform="translate(524,408)"/>
  <path d="M0 0 C4.62 0 9.24 0 14 0 C14 30.03 14 60.06 14 91 C9.38 91 4.76 91 0 91 C0 60.97 0 30.94 0 0 Z " fill="#000000" transform="translate(180,740)"/>
  <path d="M0 0 C2.56265727 2.56265727 3.17962745 4.89007987 4.375 8.3125 C4.59414063 8.93769531 4.81328125 9.56289063 5.0390625 10.20703125 C6.81715834 15.33456344 8.40314031 20.51368961 9.96484375 25.7109375 C11.06964783 29.22129611 12.30097253 32.66803817 13.5625 36.125 C19.14936681 51.62293393 19.14936681 51.62293393 18.86328125 56.17578125 C18 58 18 58 15.92578125 59.16015625 C14.63220703 59.60681641 14.63220703 59.60681641 13.3125 60.0625 C10.22115431 61.17538445 7.48289608 62.27265479 4.5625 63.8125 C2 65 2 65 -1 64 C-1.95263672 61.70678711 -1.95263672 61.70678711 -2.8046875 58.58984375 C-3.14338867 57.41019043 -3.48208984 56.23053711 -3.83105469 55.01513672 C-4.01599487 54.36857117 -4.20093506 53.72200562 -4.39147949 53.05584717 C-5.48460523 49.36279257 -6.72005329 45.7173131 -7.9453125 42.06640625 C-8.33272614 40.90629532 -8.33272614 40.90629532 -8.72796631 39.7227478 C-9.52554475 37.33551662 -10.32522254 34.94899524 -11.125 32.5625 C-11.66811106 30.93819862 -12.2110806 29.31384991 -12.75390625 27.68945312 C-13.74668793 24.71919016 -14.74026778 21.7491971 -15.73486328 18.77954102 C-16.82576236 15.52052738 -17.9140652 12.2606705 -19 9 C-17.96359375 8.51789063 -16.9271875 8.03578125 -15.859375 7.5390625 C-14.48956968 6.90107098 -13.11977877 6.26304852 -11.75 5.625 C-11.06808594 5.30789063 -10.38617187 4.99078125 -9.68359375 4.6640625 C-6.43425287 3.14980656 -3.19361516 1.62973145 0 0 Z " fill="#EF3042" transform="translate(544,398)"/>
  <path d="M0 0 C3.73431362 9.13715034 6.64706976 18.330136 9.36181641 27.80517578 C10.42657898 31.46707921 11.5523709 35.10939436 12.6875 38.75 C12.88988281 39.40524658 13.09226562 40.06049316 13.30078125 40.7355957 C14.14458164 43.43399903 15.00686399 46.01466095 16.20703125 48.578125 C17.30321093 51.92606294 17.22867612 53.68522628 16 57 C13.46482734 58.63969401 11.37172215 59.75180507 8.625 60.875 C7.93921875 61.18179688 7.2534375 61.48859375 6.546875 61.8046875 C3.55761644 63.1073994 1.29000907 64 -2 64 C-2.29132812 63.04222656 -2.58265625 62.08445312 -2.8828125 61.09765625 C-5.12887481 53.77960053 -7.47924097 46.51899545 -10.0625 39.3125 C-12.58528695 32.26695091 -14.87010905 25.17536596 -17 18 C-17.58325929 16.06247771 -18.16658641 14.12497583 -18.75 12.1875 C-19.16715317 10.79181199 -19.58402437 9.39603943 -20 8 C-19.443125 7.75765625 -18.88625 7.5153125 -18.3125 7.265625 C-13.6938164 5.2371491 -9.17530308 3.11435967 -4.7265625 0.734375 C-3 0 -3 0 0 0 Z " fill="#EF3042" transform="translate(565,458)"/>
  <path d="M0 0 C4.640625 -0.061875 9.28125 -0.12375 14.0625 -0.1875 C16.23791382 -0.22846802 16.23791382 -0.22846802 18.45727539 -0.27026367 C27.79864054 -0.33059751 33.97933985 0.38052043 41 7 C43.5446356 11.24105933 43.67187393 15.17090614 43 20 C40.61104306 24.86979684 37.66669958 27.31913003 33 30 C29.52217417 31.15927528 26.81196743 31.11313066 23.14453125 31.09765625 C21.93385986 31.09515869 20.72318848 31.09266113 19.47583008 31.09008789 C17.93693115 31.08098389 16.39803223 31.07187988 14.8125 31.0625 C9.924375 31.041875 5.03625 31.02125 0 31 C0 20.77 0 10.54 0 0 Z " fill="#F7F7F7" transform="translate(429,754)"/>
  <path d="M0 0 C3.04265284 1.94024239 6.02941534 3.95117028 9 6 C10.34578125 6.92232422 10.34578125 6.92232422 11.71875 7.86328125 C12.5953125 8.50652344 13.471875 9.14976562 14.375 9.8125 C15.59316406 10.68841797 15.59316406 10.68841797 16.8359375 11.58203125 C19.39349203 14.43965987 20.16115466 16.81230615 21.23583984 20.44262695 C22.05110595 23.17103349 23.00902527 25.81400103 24.0078125 28.48046875 C24.35457031 29.41697266 24.70132813 30.35347656 25.05859375 31.31835938 C25.77430737 33.24396983 26.49309939 35.16843869 27.21484375 37.09179688 C28.92199659 41.7177335 30.45254224 46.06458538 31 51 C28.42141033 52.34326531 25.83782579 53.67474665 23.25 55 C22.52039063 55.3815625 21.79078125 55.763125 21.0390625 56.15625 C19.97558594 56.69765625 19.97558594 56.69765625 18.890625 57.25 C18.24125977 57.58515625 17.59189453 57.9203125 16.92285156 58.265625 C15 59 15 59 11 59 C10.52213542 57.56640625 10.04427083 56.1328125 9.56640625 54.69921875 C9.25123047 53.75409424 8.93605469 52.80896973 8.61132812 51.83520508 C7.9046249 49.71427288 7.198916 47.59300914 6.49414062 45.47143555 C4.50749922 39.49628969 2.50170502 33.5285419 0.46484375 27.5703125 C0.05355225 26.35899658 -0.35773926 25.14768066 -0.78149414 23.8996582 C-1.58325069 21.53936788 -2.39087505 19.18106127 -3.20483398 16.82495117 C-3.57036377 15.7444751 -3.93589355 14.66399902 -4.3125 13.55078125 C-4.63863281 12.59856689 -4.96476562 11.64635254 -5.30078125 10.6652832 C-6.00307269 7.98828752 -6.13487858 5.75345888 -6 3 C-4.02 2.01 -2.04 1.02 0 0 Z " fill="#EF3042" transform="translate(513,344)"/>
  <path d="M0 0 C6.03837983 3.6544904 11.81791375 7.52147184 17.375 11.875 C26.21513272 18.79629303 35.4020265 25.16593768 45 31 C44.74803295 33.36849029 44.41951838 35.65840253 44 38 C43.87367188 38.75667969 43.74734375 39.51335937 43.6171875 40.29296875 C42.75296009 43.92637552 41.98766611 46.26390922 38.9296875 48.54296875 C36.33067515 49.86691705 33.72338199 50.95667619 31 52 C29.62714844 52.5878125 29.62714844 52.5878125 28.2265625 53.1875 C21.56640625 56 21.56640625 56 18 56 C15.59765625 48.79296875 13.1953125 41.5859375 10.79296875 34.37890625 C10.40168793 33.20530548 10.40168793 33.20530548 10.00250244 32.00799561 C9.47391371 30.42190336 8.94571673 28.8356805 8.41790771 27.24932861 C7.04204799 23.11585486 5.6586184 18.98514374 4.26269531 14.85839844 C3.9839859 14.03129364 3.70527649 13.20418884 3.41812134 12.35202026 C2.88425129 10.76828758 2.34803217 9.18534431 1.80917358 7.603302 C0 2.22480412 0 2.22480412 0 0 Z " fill="#EE3143" transform="translate(571,386)"/>
  <path d="M0 0 C0.63036226 1.66464597 1.25397593 3.33184776 1.875 5 C2.22304688 5.928125 2.57109375 6.85625 2.9296875 7.8125 C3.92149196 10.76619503 4.67085208 13.72078831 5.40185547 16.74707031 C6.58234266 21.19341147 8.13457835 25.52490755 9.625 29.875 C10.26577048 31.74645663 10.90392892 33.61881031 11.5390625 35.4921875 C11.81959473 36.31058105 12.10012695 37.12897461 12.38916016 37.97216797 C13 40 13 40 13 42 C6.47632332 45.01645234 -0.48146381 44.70370724 -7.4375 43.3125 C-14.37304803 39.76014613 -16.40700837 34.28368809 -18.75 27.3125 C-19.34839758 25.60006436 -19.94732994 23.88781548 -20.546875 22.17578125 C-20.80307617 21.42208252 -21.05927734 20.66838379 -21.32324219 19.8918457 C-21.97576531 17.94861925 -21.97576531 17.94861925 -23 16 C-23.039992 14.00039988 -23.04346799 11.99952758 -23 10 C-19.54466686 8.32705993 -16.08526007 6.66272237 -12.625 5 C-11.14773438 4.28457031 -11.14773438 4.28457031 -9.640625 3.5546875 C-8.22910156 2.87792969 -8.22910156 2.87792969 -6.7890625 2.1875 C-5.91975098 1.76855469 -5.05043945 1.34960938 -4.15478516 0.91796875 C-2 0 -2 0 0 0 Z " fill="#F03143" transform="translate(539,537)"/>
  <path d="M0 0 C1.18782974 3.15912164 2.34624633 6.32829108 3.5 9.5 C3.83386719 10.386875 4.16773438 11.27375 4.51171875 12.1875 C6.925499 18.88697172 8.44393348 25.10866282 5.875 32.0625 C5.46894531 33.17625 5.46894531 33.17625 5.0546875 34.3125 C3.20226315 39.03275167 1.33268814 43.74525997 -0.5703125 48.4453125 C-2.11094434 52.27584521 -3.57645236 56.12478698 -5 60 C-7.27839271 56.58241093 -8.43800944 53.11635056 -9.71484375 49.25390625 C-9.97125137 48.48755356 -10.227659 47.72120087 -10.49183655 46.93162537 C-11.03445153 45.30582175 -11.57479448 43.67925833 -12.11303711 42.05200195 C-12.92483139 39.60075343 -13.74601976 37.15280599 -14.56835938 34.70507812 C-17.40311804 26.21053798 -20.03485954 17.74731119 -22 9 C-20.96359375 8.51789063 -19.9271875 8.03578125 -18.859375 7.5390625 C-17.48956968 6.90107098 -16.11977877 6.26304852 -14.75 5.625 C-14.06808594 5.30789063 -13.38617187 4.99078125 -12.68359375 4.6640625 C-12.01972656 4.3546875 -11.35585938 4.0453125 -10.671875 3.7265625 C-10.02927734 3.42782227 -9.38667969 3.12908203 -8.72460938 2.82128906 C-7.36645831 2.17451384 -6.03006591 1.482042 -4.703125 0.7734375 C-3 0 -3 0 0 0 Z " fill="#EE3042" transform="translate(589,447)"/>
  <path d="M0 0 C1.38671875 2.9140625 1.38671875 2.9140625 2.6875 6.625 C3.34298828 8.43871094 3.34298828 8.43871094 4.01171875 10.2890625 C5.83029563 17.11771086 5.1304581 21.5718315 2.1875 27.9375 C0.44015696 31.76928592 -1.25195338 35.55466558 -2.5625 39.5625 C-4.20982184 43.50174787 -5.81720734 45.24731446 -9 48 C-9.25414673 47.21689453 -9.25414673 47.21689453 -9.51342773 46.41796875 C-10.92404508 42.12360017 -12.40019039 37.86295938 -13.97265625 33.625 C-14.31490234 32.70203125 -14.65714844 31.7790625 -15.00976562 30.828125 C-15.71206509 28.94142812 -16.41780124 27.05600697 -17.12695312 25.171875 C-19.22698264 19.487107 -20.82402678 13.94689047 -22 8 C-19.77208002 6.87247351 -17.54274113 5.74791861 -15.3125 4.625 C-14.68666016 4.30789063 -14.06082031 3.99078125 -13.41601562 3.6640625 C-3.68330832 -1.22776944 -3.68330832 -1.22776944 0 0 Z " fill="#EE3143" transform="translate(563,528)"/>
  <path d="M0 0 C6.96228946 4.2623465 13.56651497 8.82659968 20.05078125 13.78515625 C23.69205111 16.5197258 27.44330878 19.06842707 31.234375 21.58984375 C32.10835938 22.28787109 32.10835938 22.28787109 33 23 C33 23.66 33 24.32 33 25 C33.53625 25.0825 34.0725 25.165 34.625 25.25 C37.87340691 26.27581271 40.28751859 27.96563894 43 30 C43 30.66 43 31.32 43 32 C41.6078125 32.1546875 41.6078125 32.1546875 40.1875 32.3125 C36.72496932 33.05932034 36.32422809 33.59233808 34 36 C28.56952115 39.29842018 20.39364228 44 14 44 C12.57943926 39.93885148 11.16429724 35.8758336 9.75 31.8125 C9.35425781 30.68134766 8.95851563 29.55019531 8.55078125 28.38476562 C1.46388483 7.9954161 1.46388483 7.9954161 0 0 Z " fill="#EE3042" transform="translate(467,311)"/>
  <path d="M0 0 C0.99 0 1.98 0 3 0 C5.98993975 8.06303424 8.66151051 16.09370403 10.953125 24.38671875 C12.47987503 29.65628508 14.26066341 34.82915521 16.046875 40.015625 C17 43 17 43 17 45 C18.11375 44.4225 19.2275 43.845 20.375 43.25 C31.56638418 37.65430791 31.56638418 37.65430791 37.234375 36.57421875 C37.81703125 36.38472656 38.3996875 36.19523437 39 36 C39.33 35.01 39.66 34.02 40 33 C41.98 33 43.96 33 46 33 C46.495 32.01 46.495 32.01 47 31 C47 31.99 47 32.98 47 34 C47.99 34.495 47.99 34.495 49 35 C47.02 35.66 45.04 36.32 43 37 C46.60744812 49.5416388 50.43073074 61.97873403 54.90625 74.2421875 C55.23189941 75.14412842 55.55754883 76.04606934 55.89306641 76.9753418 C56.53691901 78.75370047 57.189937 80.52877331 57.85302734 82.30004883 C58.29316162 83.51857544 58.29316162 83.51857544 58.7421875 84.76171875 C59.0088623 85.48319092 59.27553711 86.20466309 59.55029297 86.94799805 C60.06695046 89.30549326 59.75595796 90.73308302 59 93 C55.4289035 89.80535967 54.55355174 86.04157748 53.25 81.5625 C51.10791379 74.47371934 48.80550382 67.47312703 46.3125 60.5 C43.90585396 53.73623633 41.68273275 46.98734743 40 40 C34.68249786 41.83766618 29.44562331 43.66754231 24.4375 46.25 C21 48 21 48 19 48 C19.19110352 48.56807373 19.38220703 49.13614746 19.57910156 49.72143555 C22.84101918 59.42966388 26.08067731 69.13194093 29.02734375 78.94140625 C30.5057822 83.59047173 32.22365717 88.14861678 33.94921875 92.7109375 C35.06026428 96.18863391 35.74349881 99.35681356 36 103 C35.34 103.99 34.68 104.98 34 106 C26.12155963 82.55103211 26.12155963 82.55103211 23.0078125 72.171875 C21.4454467 67.2546617 19.69337448 62.40495591 17.92919922 57.55688477 C16 52.20774148 16 52.20774148 16 50 C14.83082031 50.56589844 13.66164063 51.13179688 12.45703125 51.71484375 C10.90899553 52.45602449 9.36081056 53.19689356 7.8125 53.9375 C6.65911133 54.49727539 6.65911133 54.49727539 5.48242188 55.06835938 C1.67768627 56.88091582 -1.76994818 58.46594536 -6 59 C-6 58.34 -6 57.68 -6 57 C-6.66 57 -7.32 57 -8 57 C-7 55 -7 55 -4.390625 54.0703125 C-3.27171875 53.71710938 -2.1528125 53.36390625 -1 53 C2.06240446 51.70951078 5.1038916 50.3841184 8.140625 49.03515625 C12.79241071 47 12.79241071 47 15 47 C14.55269531 45.82566406 14.10539062 44.65132813 13.64453125 43.44140625 C10.32712413 34.63886343 7.20605086 25.85241777 4.68676758 16.78540039 C3.72639657 13.35047486 2.65223125 10.01992153 1.359375 6.69921875 C0 3 0 3 0 0 Z " fill="#FDD3DA" transform="translate(464,310)"/>
  <path d="M0 0 C10.23 0 20.46 0 31 0 C31 1.65 31 3.3 31 5 C28.69 5 26.38 5 24 5 C24 16.55 24 28.1 24 40 C21.69 38.68 19.38 37.36 17 36 C16.13125244 35.51587646 15.26250488 35.03175293 14.36743164 34.53295898 C10.69392837 32.14678213 8.36004573 30.46254753 7.28466797 26.09423828 C7.11400366 22.70693386 7.21243574 19.44615838 7.4375 16.0625 C7.47810547 14.90169922 7.51871094 13.74089844 7.56054688 12.54492188 C7.66620075 9.69226713 7.81371975 6.84833646 8 4 C5.36 4 2.72 4 0 4 C0 2.68 0 1.36 0 0 Z " fill="#C0C5C1" transform="translate(435,259)"/>
  <path d="M0 0 C2.29164731 3.43747096 3.44054913 6.92870939 4.71484375 10.81640625 C4.97125137 11.58750229 5.227659 12.35859833 5.49183655 13.15306091 C6.03434174 14.78729711 6.57468828 16.42225124 7.11303711 18.05786133 C7.92691542 20.53034508 8.74699982 23.00069585 9.56835938 25.47070312 C17 47.87112282 17 47.87112282 17 52 C17.56509277 51.75241943 18.13018555 51.50483887 18.71240234 51.24975586 C21.26315921 50.13757129 23.81893102 49.03741761 26.375 47.9375 C27.26445313 47.54755859 28.15390625 47.15761719 29.0703125 46.75585938 C29.92109375 46.39169922 30.771875 46.02753906 31.6484375 45.65234375 C32.43395996 45.31195068 33.21948242 44.97155762 34.02880859 44.62084961 C36 44 36 44 38 45 C38 49.32575537 37.09837716 51.91798852 35.59375 55.953125 C35.34959351 56.61334656 35.10543701 57.27356812 34.85388184 57.95379639 C34.07531191 60.05484052 33.28780093 62.15240191 32.5 64.25 C31.96945827 65.67686268 31.43950354 67.10394377 30.91015625 68.53125 C29.61356392 72.02339015 28.30893363 75.51246407 27 79 C26.34 79 25.68 79 25 79 C25 81.31 25 83.62 25 86 C24.01 86.495 24.01 86.495 23 87 C23.06960938 86.46375 23.13921875 85.9275 23.2109375 85.375 C23.69727903 78.33462742 21.78397908 72.93150336 19.13427734 66.53515625 C17.70399382 63.06100351 17 60.82293148 17 57 C16.49549316 57.24758057 15.99098633 57.49516113 15.47119141 57.75024414 C13.19303754 58.86255631 10.9091886 59.96263748 8.625 61.0625 C7.8309375 61.45244141 7.036875 61.84238281 6.21875 62.24414062 C5.45820312 62.60830078 4.69765625 62.97246094 3.9140625 63.34765625 C2.8614624 63.85824585 2.8614624 63.85824585 1.78759766 64.37915039 C1.19769043 64.58403076 0.6077832 64.78891113 0 65 C-0.66 64.67 -1.32 64.34 -2 64 C-2 63.01 -2 62.02 -2 61 C3.25184831 58.28029284 8.43067543 55.98904449 14 54 C13.42249572 48.21725716 11.79579001 43.33296779 9.6875 37.9375 C7.07527316 31.07251737 4.83269031 24.26277986 2.91015625 17.171875 C1.73163065 13.06473858 0.26754094 9.09560643 -1.265625 5.109375 C-2 3 -2 3 -2 1 C-1.34 0.67 -0.68 0.34 0 0 Z " fill="#FED6DC" transform="translate(572,390)"/>
  <path d="M0 0 C0.66 0 1.32 0 2 0 C2.31453125 0.845625 2.6290625 1.69125 2.953125 2.5625 C5.68061369 9.91045586 5.68061369 9.91045586 9 17 C16 30.36885246 16 30.36885246 16 36 C5.77 36 -4.46 36 -15 36 C-13.45527767 31.365833 -11.73019573 27.12254615 -9.625 22.75 C-6.85529939 16.91202519 -4.31515297 11.03475893 -2 5 C-1.33535844 3.33252472 -0.66918505 1.66565711 0 0 Z " fill="#F5F5F5" transform="translate(672,759)"/>
  <path d="M0 0 C5.3281703 2.89243531 10.07682226 6.17920013 14.875 9.875 C19.99007476 13.77755126 25.10902399 17.53727223 30.59375 20.9140625 C31.0578125 21.27242188 31.521875 21.63078125 32 22 C32 22.66 32 23.32 32 24 C25.07 26.97 18.14 29.94 11 33 C8.17650635 30.17650635 7.65425657 26.81455312 6.625 23.0625 C4.90227724 16.9611634 3.013451 11.01062982 0.69921875 5.1015625 C0 3 0 3 0 0 Z " fill="#EB3345" transform="translate(536,361)"/>
  <path d="M0 0 C1.20462624 17.89730412 1.20462624 17.89730412 -2.9375 22.8125 C-7.89183394 27.2129958 -13.27403048 31 -20 31 C-19.80794342 20.05277476 -19.80794342 20.05277476 -16.9375 16.3125 C-15.968125 15.549375 -14.99875 14.78625 -14 14 C-12.6452302 12.5193324 -11.31364485 11.01727222 -10 9.5 C-1.61018364 0 -1.61018364 0 0 0 Z " fill="#B8BBB8" transform="translate(271,808)"/>
  <path d="M0 0 C-2.03849004 7.19386557 -4.48156368 14.15709165 -7.1875 21.125 C-7.55552734 22.08148438 -7.92355469 23.03796875 -8.30273438 24.0234375 C-9.19855445 26.35024289 -10.09767773 28.67571021 -11 31 C-13 30 -13 30 -14.25390625 26.61328125 C-14.69805626 25.18213121 -15.13389726 23.74838278 -15.5625 22.3125 C-15.78357422 21.60416016 -16.00464844 20.89582031 -16.23242188 20.16601562 C-17.46530519 16.13214059 -18.41295129 12.1884936 -19 8 C-16.21128823 6.66042079 -13.41856938 5.32941565 -10.625 4 C-9.8309375 3.6184375 -9.036875 3.236875 -8.21875 2.84375 C-7.45820312 2.4828125 -6.69765625 2.121875 -5.9140625 1.75 C-5.2123291 1.41484375 -4.5105957 1.0796875 -3.78759766 0.734375 C-2 0 -2 0 0 0 Z " fill="#E93345" transform="translate(610,437)"/>
  <path d="M0 0 C6.17634073 7.62446582 8.01752351 18.27578284 10.703125 27.5625 C11.97739464 31.95466345 13.31968472 36.3236638 14.6875 40.6875 C14.99095337 41.65755981 14.99095337 41.65755981 15.30053711 42.6472168 C16.49451294 46.444965 17.73067647 50.22680539 19 54 C20.65 54 22.3 54 24 54 C23.67 54.66 23.34 55.32 23 56 C21.35 56 19.7 56 18 56 C18 56.66 18 57.32 18 58 C16.515 57.505 16.515 57.505 15 57 C15 56.01 15 55.02 15 54 C13.66096215 47.92129846 11.73403322 42.16196568 9.625 36.3125 C7.20436286 29.50555321 4.90425496 22.69999073 2.84765625 15.7734375 C1.8276396 12.43605585 0.65207435 9.16614587 -0.58203125 5.90234375 C-1.0811998 3.63042708 -0.71640215 2.18819433 0 0 Z " fill="#FDCCD3" transform="translate(501,418)"/>
  <path d="M0 0 C0.33 0 0.66 0 1 0 C1.30292969 1.05316406 1.60585938 2.10632813 1.91796875 3.19140625 C5.23959793 14.66161644 8.81144392 26.02193328 12.90625 37.2421875 C13.39472412 38.59509888 13.39472412 38.59509888 13.89306641 39.9753418 C14.53691901 41.75370047 15.189937 43.52877331 15.85302734 45.30004883 C16.1464502 46.1123999 16.43987305 46.92475098 16.7421875 47.76171875 C17.0088623 48.48319092 17.27553711 49.20466309 17.55029297 49.94799805 C18.06695046 52.30549326 17.75595796 53.73308302 17 56 C13.42899568 52.80544214 12.553244 49.0416148 11.25 44.5625 C8.85602382 36.62421601 6.23194615 28.80626795 3.36035156 21.02758789 C-1.98189681 6.20362065 -1.98189681 6.20362065 0 0 Z " fill="#FDCCD4" transform="translate(506,347)"/>
  <path d="M0 0 C-2.39690506 7.44302097 -5.15262441 14.71837152 -8 22 C-8.66 22 -9.32 22 -10 22 C-10.70005949 19.92085336 -11.38462244 17.83648414 -12.0625 15.75 C-12.44535156 14.58984375 -12.82820312 13.4296875 -13.22265625 12.234375 C-14.36423986 7.48446933 -14.36423986 7.48446933 -13 5 C-10.56640625 3.515625 -10.56640625 3.515625 -7.5625 2.25 C-6.57378906 1.82203125 -5.58507812 1.3940625 -4.56640625 0.953125 C-2 0 -2 0 0 0 Z " fill="#E73344" transform="translate(579,519)"/>
  <path d="M0 0 C0.99 0 1.98 0 3 0 C4.98358214 5.70809241 6.95881552 11.4189809 8.92651367 17.13256836 C9.59645021 19.07410624 10.26862409 21.01487367 10.94311523 22.95483398 C11.91465211 25.75042237 12.87799358 28.54872252 13.83984375 31.34765625 C14.14091537 32.2083522 14.441987 33.06904816 14.75218201 33.95582581 C16.35861117 38.65860541 17.48350141 43.0538694 18 48 C16.515 47.505 16.515 47.505 15 47 C13.87094063 44.41069051 12.93588757 41.92519732 12.0625 39.25 C11.80090088 38.47938232 11.53930176 37.70876465 11.26977539 36.91479492 C9.40706399 31.38169929 7.683448 25.8084357 6.01171875 20.21484375 C4.4906525 15.38149423 2.72382729 10.64519965 0.953125 5.8984375 C0 3 0 3 0 0 Z " fill="#FED0D7" transform="translate(525,413)"/>
  <path d="M0 0 C0.99 0 1.98 0 3 0 C6.02236147 8.15046659 8.70868313 16.26604276 11.015625 24.65234375 C12.24264464 28.82518435 13.75584733 32.85112563 15.36328125 36.890625 C16 39 16 39 15 41 C14.01 41.495 14.01 41.495 13 42 C12.64808594 40.94425781 12.29617188 39.88851562 11.93359375 38.80078125 C11.69850098 38.09574463 11.4634082 37.39070801 11.22119141 36.66430664 C10.69293777 35.07905203 10.1652811 33.49359838 9.63818359 31.90795898 C8.12038405 27.34526769 6.59043454 22.78709754 5.04296875 18.234375 C4.72336182 17.28908936 4.40375488 16.34380371 4.07446289 15.36987305 C3.44834085 13.51855463 2.81869796 11.66842273 2.18530273 9.81958008 C1.89985596 8.97290771 1.61440918 8.12623535 1.3203125 7.25390625 C1.06523926 6.50439697 0.81016602 5.7548877 0.54736328 4.98266602 C0 3 0 3 0 0 Z " fill="#FCC3CA" transform="translate(464,310)"/>
  <path d="M0 0 C0.66 0 1.32 0 2 0 C2.67305018 1.60149886 3.33822227 3.20631029 4 4.8125 C4.37125 5.70582031 4.7425 6.59914063 5.125 7.51953125 C6 10 6 10 6 13 C7.69769531 12.22462891 7.69769531 12.22462891 9.4296875 11.43359375 C10.91127353 10.76781775 12.39305453 10.10247553 13.875 9.4375 C14.62136719 9.09525391 15.36773438 8.75300781 16.13671875 8.40039062 C18.06549332 7.54026143 20.0311033 6.76383202 22 6 C22.66 6.33 23.32 6.66 24 7 C23.375 8.875 23.375 8.875 22 11 C19.4375 12.0625 19.4375 12.0625 16 13 C14.39190585 13.48722058 12.78781244 13.98779809 11.1875 14.5 C10.41792969 14.7371875 9.64835938 14.974375 8.85546875 15.21875 C6.80658446 15.84450493 6.80658446 15.84450493 6 18 C5.01 17.34 4.02 16.68 3 16 C2.70731508 14.01624664 2.42371219 12.02894015 2.25 10.03125 C1.93565545 7.4772005 1.00898429 5.35429668 0 3 C0 2.01 0 1.02 0 0 Z " fill="#FEE2E7" transform="translate(557,509)"/>
  <path d="M0 0 C0.99 0 1.98 0 3 0 C2.81211914 0.58467041 2.62423828 1.16934082 2.43066406 1.77172852 C1.72362222 5.42998866 3.43787322 8.56490367 4.75 11.9375 C7.42618908 19.14513129 9.91097413 26.35234644 11 34 C10.67 34.66 10.34 35.32 10 36 C9.34 35.67 8.68 35.34 8 35 C7.49682617 33.27197266 7.49682617 33.27197266 7.10546875 31.0390625 C5.89424689 25.04345498 3.63091341 19.56775356 1.30273438 13.9296875 C-0.72010584 8.74852504 -1.31930806 5.43759011 0 0 Z " fill="#FDC9D1" transform="translate(535,360)"/>
  <path d="M0 0 C2.13266283 3.19899424 2.83502828 5.67308584 3.8125 9.375 C5.51171159 15.57326046 7.65035308 21.42356699 10.14453125 27.35546875 C11 30 11 30 10 33 C9.67 31.35 9.34 29.7 9 28 C8.01 28 7.02 28 6 28 C-2.06893031 6.6265739 -2.06893031 6.6265739 0 0 Z " fill="#FCC3CA" transform="translate(550,481)"/>
  <path d="M0 0 C0.8353125 0.556875 0.8353125 0.556875 1.6875 1.125 C2.3475 0.795 3.0075 0.465 3.6875 0.125 C4.36429658 1.850227 5.02852 3.58038939 5.6875 5.3125 C6.05875 6.27542969 6.43 7.23835937 6.8125 8.23046875 C7.66386772 11.04682358 7.85822647 13.20664439 7.6875 16.125 C8.3475 16.455 9.0075 16.785 9.6875 17.125 C9.0275 17.125 8.3675 17.125 7.6875 17.125 C7.6875 18.775 7.6875 20.425 7.6875 22.125 C7.3575 22.125 7.0275 22.125 6.6875 22.125 C6.42195312 21.17238281 6.15640625 20.21976563 5.8828125 19.23828125 C5.52960937 17.98402344 5.17640625 16.72976563 4.8125 15.4375 C4.29042969 13.57544922 4.29042969 13.57544922 3.7578125 11.67578125 C2.87192444 8.73683146 1.88548549 5.94728113 0.6875 3.125 C-0.9521875 3.434375 -0.9521875 3.434375 -2.625 3.75 C-6.3125 4.125 -6.3125 4.125 -9.3125 2.125 C-2.88173077 -1.09038462 -2.88173077 -1.09038462 0 0 Z " fill="#FDD1D7" transform="translate(561.3125,524.875)"/>
  <path d="M0 0 C5.75051443 4.6575804 7.85819633 14.68901334 8.9375 21.75 C8.958125 22.8225 8.97875 23.895 9 25 C8.34 25.66 7.68 26.32 7 27 C5.8491847 23.60583457 4.7052339 20.20939392 3.5625 16.8125 C3.23701172 15.85279297 2.91152344 14.89308594 2.57617188 13.90429688 C2.10727539 12.50727539 2.10727539 12.50727539 1.62890625 11.08203125 C1.34088135 10.22843018 1.05285645 9.3748291 0.75610352 8.49536133 C0.00012383 6.00040867 -0.61434718 3.57896559 -1 1 C-0.67 0.67 -0.34 0.34 0 0 Z " fill="#FECFD7" transform="translate(544,550)"/>
  <path d="M0 0 C4.69286291 7.03929436 6.68695905 15.92187973 9 24 C8.34 24 7.68 24 7 24 C7 26.31 7 28.62 7 31 C6.34 31.33 5.68 31.66 5 32 C5.06960938 31.46375 5.13921875 30.9275 5.2109375 30.375 C5.69548252 23.360634 3.81016215 18.03506144 1.04638672 11.7109375 C-0.7811116 7.36700727 -1.24123059 4.56772857 0 0 Z " fill="#FFD7DD" transform="translate(590,445)"/>
  <path d="M0 0 C2.49207576 7.4932963 -2.71345886 15.77967574 -5.87109375 22.453125 C-6.83327022 24.6238484 -7.54195188 26.64450402 -8.125 28.9375 C-8.9984744 31.99466042 -10.04806253 33.55744041 -12 36 C-10.86720799 28.95265499 -8.92310274 22.81004903 -6 16.3125 C-3.61143707 10.92525209 -1.46885869 5.71477835 0 0 Z " fill="#DB3F4D" transform="translate(341,585)"/>
  <path d="M0 0 C0.33 0 0.66 0 1 0 C1.28525732 5.61006055 1.15627529 8.26558706 -2 13 C-2.69450124 14.63428267 -3.35841869 16.2817267 -4 17.9375 C-5.4823456 21.75168926 -7.09498649 25.38047433 -9 29 C-9.33 28.34 -9.66 27.68 -10 27 C-9.109375 24.53125 -9.109375 24.53125 -7.75 21.5 C-5.69834662 16.76585245 -4.03048831 12.09585647 -2.625 7.13671875 C-1.90807729 4.68573923 -1.0151277 2.34260239 0 0 Z " fill="#D9414F" transform="translate(368,512)"/>
  <path d="M0 0 C1.0625 1.875 1.0625 1.875 2 4 C1.67 4.66 1.34 5.32 1 6 C-0.66475686 6.34274406 -2.33195323 6.67364302 -4 7 C-5.19625 7.53625 -6.3925 8.0725 -7.625 8.625 C-11 10 -11 10 -14 9 C-14 8.34 -14 7.68 -14 7 C-12.23244474 6.15973604 -10.46082737 5.32801278 -8.6875 4.5 C-7.70136719 4.0359375 -6.71523438 3.571875 -5.69921875 3.09375 C-3 2 -3 2 0 2 C0 1.34 0 0.68 0 0 Z " fill="#FEE2E8" transform="translate(568,383)"/>
  <path d="M0 0 C1.90318884 2.85478326 2.4619099 4.41941308 3.125 7.6875 C3.29257812 8.49574219 3.46015625 9.30398438 3.6328125 10.13671875 C3.75398437 10.75160156 3.87515625 11.36648438 4 12 C0.13773965 13.79905658 -2.93812052 14.27111493 -7.1875 14.25 C-8.23292969 14.25515625 -9.27835938 14.2603125 -10.35546875 14.265625 C-13 14 -13 14 -15 12 C-9.72 12 -4.44 12 1 12 C0.67 8.04 0.34 4.08 0 0 Z " fill="#D63443" transform="translate(548,567)"/>
  <path d="M0 0 C0.33 0.66 0.66 1.32 1 2 C1.8353125 2.185625 1.8353125 2.185625 2.6875 2.375 C5.96592505 3.26106082 8.3025009 4.97687567 11 7 C11 7.66 11 8.32 11 9 C8.36 9.66 5.72 10.32 3 11 C0 3.375 0 3.375 0 0 Z " fill="#FEC8CF" transform="translate(499,334)"/>
  <path d="M0 0 C4.14749379 4.5424932 5.86999199 10.52984787 6.1875 16.5625 C6.125625 17.366875 6.06375 18.17125 6 19 C2.85871246 17.42935623 2.42190313 14.33238922 1.3125 11.1875 C1.07466797 10.55779297 0.83683594 9.92808594 0.59179688 9.27929688 C-0.63142274 5.86073884 -1.43004376 3.44077195 0 0 Z " fill="#FED8DE" transform="translate(544,466)"/>
  <path d="M0 0 C2.55954153 2.55954153 3.09825529 4.80531275 4.1875 8.25 C4.55230469 9.36890625 4.91710937 10.4878125 5.29296875 11.640625 C6.03438148 15.16335952 5.82654582 17.52534879 5 21 C2.9146337 17.87195054 1.94506175 15.19849808 0.8125 11.625 C0.44769531 10.50351562 0.08289063 9.38203125 -0.29296875 8.2265625 C-1.00087593 4.99600266 -0.92193581 3.13575619 0 0 Z " fill="#FDCAD1" transform="translate(567,458)"/>
  <path d="M0 0 C0.33 0 0.66 0 1 0 C1 4.62 1 9.24 1 14 C-0.32 14 -1.64 14 -3 14 C-2.88617347 12.04098546 -2.75858875 10.0827662 -2.625 8.125 C-2.55539063 7.03445313 -2.48578125 5.94390625 -2.4140625 4.8203125 C-2 2 -2 2 0 0 Z " fill="#B1B3B0" transform="translate(254,825)"/>
  <path d="M0 0 C0 0.66 0 1.32 0 2 C0.66 2.33 1.32 2.66 2 3 C0.21046815 3.83790789 -1.58169695 4.67019396 -3.375 5.5 C-4.87160156 6.19609375 -4.87160156 6.19609375 -6.3984375 6.90625 C-9 8 -9 8 -11 8 C-11.33 7.01 -11.66 6.02 -12 5 C-10.37750059 4.16180842 -8.75191503 3.3295884 -7.125 2.5 C-6.22007812 2.0359375 -5.31515625 1.571875 -4.3828125 1.09375 C-2 0 -2 0 0 0 Z " fill="#FED5DB" transform="translate(489,420)"/>
  <path d="M0 0 C2.1758058 3.2637087 3.07963886 6.05697073 4.1875 9.8125 C4.55230469 11.01519531 4.91710937 12.21789062 5.29296875 13.45703125 C6.01190644 17.05966375 5.85170138 19.45757325 5 23 C2.63934422 19.45901633 2.0951615 16.16668569 1.375 12.0625 C1.2409375 11.34642578 1.106875 10.63035156 0.96875 9.89257812 C0.35583035 6.5183929 0 3.44160369 0 0 Z " fill="#FCC2CA" transform="translate(523,482)"/>
  <path d="M0 0 C0 1.32 0 2.64 0 4 C-1.4562545 4.67119549 -2.91507867 5.33681807 -4.375 6 C-5.59316406 6.556875 -5.59316406 6.556875 -6.8359375 7.125 C-9 8 -9 8 -11 8 C-11.33 7.01 -11.66 6.02 -12 5 C-10.37750059 4.16180842 -8.75191503 3.3295884 -7.125 2.5 C-6.22007812 2.0359375 -5.31515625 1.571875 -4.3828125 1.09375 C-2 0 -2 0 0 0 Z " fill="#FED8DE" transform="translate(560,456)"/>
  <path d="M0 0 C0.66 0 1.32 0 2 0 C0.08671441 7.79619175 -2.1913925 14.90811017 -6 22 C-6.66 21.67 -7.32 21.34 -8 21 C-5.47627343 13.93893523 -2.83161469 6.9434807 0 0 Z " fill="#DE4351" transform="translate(387,462)"/>
  <path d="M0 0 C0.33 0.66 0.66 1.32 1 2 C1.66 2 2.32 2 3 2 C2.73828125 3.890625 2.73828125 3.890625 2 6 C0.29296875 7.046875 0.29296875 7.046875 -1.8125 7.75 C-2.84310547 8.11351562 -2.84310547 8.11351562 -3.89453125 8.484375 C-6 9 -6 9 -10 9 C-10 8.34 -10 7.68 -10 7 C-8.71086513 6.32845067 -7.41859796 5.66291141 -6.125 5 C-5.40570313 4.62875 -4.68640625 4.2575 -3.9453125 3.875 C-2 3 -2 3 0 3 C0 2.01 0 1.02 0 0 Z " fill="#FFEAEE" transform="translate(499,413)"/>
  <path d="M0 0 C0 0.66 0 1.32 0 2 C0.66 2.33 1.32 2.66 2 3 C0.38007835 3.86375896 -1.24611861 4.71575854 -2.875 5.5625 C-4.23238281 6.27599609 -4.23238281 6.27599609 -5.6171875 7.00390625 C-6.40351562 7.33261719 -7.18984375 7.66132813 -8 8 C-8.66 7.67 -9.32 7.34 -10 7 C-10 6.01 -10 5.02 -10 4 C-8.71086513 3.32845067 -7.41859796 2.66291141 -6.125 2 C-5.40570312 1.62875 -4.68640625 1.2575 -3.9453125 0.875 C-2 0 -2 0 0 0 Z " fill="#FECFD6" transform="translate(580,447)"/>
  <path d="M0 0 C0.33 0.99 0.66 1.98 1 3 C1.66 3.33 2.32 3.66 3 4 C0.35261084 5.4606285 -0.89448334 6 -4 6 C-4.33 7.32 -4.66 8.64 -5 10 C-5.33 9.01 -5.66 8.02 -6 7 C-6.66 6.67 -7.32 6.34 -8 6 C-7.34 4.68 -6.68 3.36 -6 2 C-4.02 2 -2.04 2 0 2 C0 1.34 0 0.68 0 0 Z " fill="#FFF1F4" transform="translate(510,341)"/>
  <path d="M0 0 C0.99 0 1.98 0 3 0 C4.905247 5.10334017 6.42589023 9.46342706 6 15 C3.08691178 13.54345589 2.94547684 11.64612352 1.875 8.625 C1.52179688 7.64789063 1.16859375 6.67078125 0.8046875 5.6640625 C0 3 0 3 0 0 Z " fill="#FDCED5" transform="translate(464,310)"/>
  <path d="M0 0 C0 0.66 0 1.32 0 2 C-1.65 2.66 -3.3 3.32 -5 4 C-4.77183594 4.81984375 -4.54367187 5.6396875 -4.30859375 6.484375 C-4.02113281 7.56203125 -3.73367188 8.6396875 -3.4375 9.75 C-3.14746094 10.81734375 -2.85742188 11.8846875 -2.55859375 12.984375 C-2.02901506 15.84335927 -2.01629138 17.31597383 -3 20 C-3.69969682 17.75376301 -4.38435043 15.50283586 -5.0625 13.25 C-5.44535156 11.99703125 -5.82820313 10.7440625 -6.22265625 9.453125 C-7.27301152 4.78722522 -7.27301152 4.78722522 -6 2 C-3.85331506 0.61504198 -2.56128588 0 0 0 Z " fill="#DB4150" transform="translate(504,485)"/>
  <path d="M0 0 C-1 3 -1 3 -3.06640625 4.16796875 C-3.89011719 4.50441406 -4.71382813 4.84085937 -5.5625 5.1875 C-6.38878906 5.53167969 -7.21507812 5.87585938 -8.06640625 6.23046875 C-9.02353516 6.61138672 -9.02353516 6.61138672 -10 7 C-10 6.01 -10 5.02 -10 4 C-10.66 3.67 -11.32 3.34 -12 3 C-10.3789897 2.30314502 -8.75303934 1.61777139 -7.125 0.9375 C-6.22007812 0.55464844 -5.31515625 0.17179687 -4.3828125 -0.22265625 C-2 -1 -2 -1 0 0 Z " fill="#FDD1D6" transform="translate(512,411)"/>
  <path d="M0 0 C0.66 0 1.32 0 2 0 C2.69670416 1.78810766 3.38211189 3.58062052 4.0625 5.375 C4.63677734 6.87160156 4.63677734 6.87160156 5.22265625 8.3984375 C6 11 6 11 5 13 C4.01 13.495 4.01 13.495 3 14 C-0.44419134 4.58997722 -0.44419134 4.58997722 0 0 Z " fill="#FECED5" transform="translate(474,338)"/>
  <path d="M0 0 C4.67105792 1.55701931 8.08705685 4.08447373 12 7 C11.01 7.495 11.01 7.495 10 8 C7.96855359 7.06553465 5.96466413 6.06775224 4 5 C4 6.65 4 8.3 4 10 C1.81024227 6.71536341 1.00193437 3.79303725 0 0 Z " fill="#D73E4C" transform="translate(431,286)"/>
  <path d="M0 0 C1.90389849 2.85584773 2.69462177 4.9311762 3.625 8.1875 C4.01558594 9.53908203 4.01558594 9.53908203 4.4140625 10.91796875 C4.60742188 11.60503906 4.80078125 12.29210937 5 13 C4.34 13 3.68 13 3 13 C3 15.31 3 17.62 3 20 C2.34 20.33 1.68 20.66 1 21 C1.01160156 20.30132812 1.02320313 19.60265625 1.03515625 18.8828125 C1.04417969 17.97273438 1.05320312 17.06265625 1.0625 16.125 C1.07410156 15.22007812 1.08570313 14.31515625 1.09765625 13.3828125 C1.16249257 10.9831415 1.16249257 10.9831415 0 9 C-0.06950541 7.45976004 -0.08452357 5.91665012 -0.0625 4.375 C-0.05347656 3.55773437 -0.04445313 2.74046875 -0.03515625 1.8984375 C-0.02355469 1.27195312 -0.01195312 0.64546875 0 0 Z " fill="#F9BEC6" transform="translate(594,456)"/>
  <path d="M0 0 C0.66 0 1.32 0 2 0 C3.64800856 3.66447432 4.33580973 6.81203466 4.625 10.8125 C4.69976563 11.78832031 4.77453125 12.76414062 4.8515625 13.76953125 C4.90054688 14.50558594 4.94953125 15.24164063 5 16 C1.37825721 12.37825721 0.12043782 6.96715106 -0.1875 1.9375 C-0.125625 1.298125 -0.06375 0.65875 0 0 Z " fill="#FED9DF" transform="translate(554,422)"/>
  <path d="M0 0 C1.96276032 2.94414048 2.25476379 3.80204933 2.5 7.125 C2.665 8.40375 2.83 9.6825 3 11 C3.66 11.33 4.32 11.66 5 12 C4.34 12 3.68 12 3 12 C3 13.65 3 15.3 3 17 C2.67 17 2.34 17 2 17 C1.4678559 14.91952703 0.94968214 12.83547707 0.4375 10.75 C0.14746094 9.58984375 -0.14257812 8.4296875 -0.44140625 7.234375 C-0.95179964 4.27909017 -1.02996165 2.75565899 0 0 Z " fill="#FAC4CA" transform="translate(566,530)"/>
  <path d="M0 0 C0.66 0 1.32 0 2 0 C2.33951619 1.56116819 2.67132544 3.12401338 3 4.6875 C3.185625 5.55761719 3.37125 6.42773438 3.5625 7.32421875 C3.98972047 9.93712964 4.07616201 12.35813038 4 15 C2.40626099 12.60939149 1.34702924 10.69171821 0.3125 8.0625 C0.04050781 7.39347656 -0.23148438 6.72445313 -0.51171875 6.03515625 C-1.0787676 3.67169662 -0.76024003 2.2807201 0 0 Z " fill="#FDD8DE" transform="translate(520,476)"/>
  <path d="M0 0 C2.57075841 3.01447835 3.52207066 5.35979771 4.1875 9.25 C4.34605469 10.14203125 4.50460937 11.0340625 4.66796875 11.953125 C4.83232422 12.96632813 4.83232422 12.96632813 5 14 C4.01 14.495 4.01 14.495 3 15 C2.29911844 13.25531628 1.61475991 11.50398839 0.9375 9.75 C0.55464844 8.77546875 0.17179688 7.8009375 -0.22265625 6.796875 C-1.01113787 3.95992605 -1.02437812 2.70590448 0 0 Z " fill="#FED4DA" transform="translate(540,536)"/>
  <path d="M0 0 C0.66 0 1.32 0 2 0 C2.70365602 1.5552912 3.38729378 3.11964827 4.0625 4.6875 C4.44535156 5.55761719 4.82820312 6.42773438 5.22265625 7.32421875 C6.0935848 10.32213864 5.85006226 12.03280153 5 15 C2.49639008 10.37795091 0 5.30049345 0 0 Z " fill="#FED6DE" transform="translate(557,509)"/>
  <path d="M0 0 C0.391875 0.66 0.78375 1.32 1.1875 2 C2.85416667 4.29166667 2.85416667 4.29166667 5.6875 4.25 C6.8321875 4.12625 6.8321875 4.12625 8 4 C7 7 7 7 5.125 8.25 C3 9 3 9 0 8 C0 5.36 0 2.72 0 0 Z " fill="#FEECEF" transform="translate(541,458)"/>
  <path d="M0 0 C0 3 0 3 -1 6 C-1.66 6 -2.32 6 -3 6 C-3 6.99 -3 7.98 -3 9 C-3.66 9 -4.32 9 -5 9 C-4.938125 9.78375 -4.87625 10.5675 -4.8125 11.375 C-4.874375 12.24125 -4.93625 13.1075 -5 14 C-5.99 14.66 -6.98 15.32 -8 16 C-7.50506533 11.24583878 -6.27876594 8.44779417 -3.4375 4.625 C-2.79683594 3.75101562 -2.15617188 2.87703125 -1.49609375 1.9765625 C-1.00238281 1.32429688 -0.50867188 0.67203125 0 0 Z " fill="#E04A59" transform="translate(742,426)"/>
  <path d="M0 0 C0.5534764 2.07553648 1 3.84365964 1 6 C-4.75 9 -4.75 9 -7 9 C-7 7.68 -7 6.36 -7 5 C-4.35261084 3.5393715 -3.10551666 3 0 3 C0 2.01 0 1.02 0 0 Z " fill="#FDCBD1" transform="translate(541,462)"/>
  <path d="M0 0 C0.53625 0.37125 1.0725 0.7425 1.625 1.125 C-1.31328597 3.62798434 -3.55402761 4.59430939 -7.375 5.125 C-7.375 4.465 -7.375 3.805 -7.375 3.125 C-8.035 3.125 -8.695 3.125 -9.375 3.125 C-8.375 1.125 -8.375 1.125 -5.5625 -0.125 C-2.375 -0.875 -2.375 -0.875 0 0 Z " fill="#FDD0D5" transform="translate(465.375,363.875)"/>
  <path d="M0 0 C-3.36423277 2.96052484 -6.69159287 3.92289822 -11 5 C-10.03558469 2.58896173 -9.31202953 1.22595242 -7.1875 -0.3125 C-4.45808824 -1.17031512 -2.72321308 -0.75644808 0 0 Z " fill="#FFDFE3" transform="translate(522,408)"/>
  <path d="M0 0 C2.0625 0.4375 2.0625 0.4375 4 1 C3.67 1.33 3.34 1.66 3 2 C2.83333333 5 2.83333333 5 3 8 C3.33 8.33 3.66 8.66 4 9 C4.04063832 10.66617115 4.042721 12.33388095 4 14 C2.09610151 11.14415227 1.30537823 9.0688238 0.375 5.8125 C-0.01558594 4.46091797 -0.01558594 4.46091797 -0.4140625 3.08203125 C-0.60742188 2.39496094 -0.80078125 1.70789063 -1 1 C-0.67 0.67 -0.34 0.34 0 0 Z " fill="#D93D4B" transform="translate(459,368)"/>
  <path d="M0 0 C1.88649506 3.26992478 2.67972144 6.23672696 3 10 C2.01 11.485 2.01 11.485 1 13 C0.01 9.37 -0.98 5.74 -2 2 C-1.34 1.34 -0.68 0.68 0 0 Z " fill="#FBBEC6" transform="translate(482,358)"/>
  <path d="M0 0 C0.99 0 1.98 0 3 0 C2.814375 0.556875 2.62875 1.11375 2.4375 1.6875 C1.83450433 4.03695299 1.83450433 4.03695299 2.5625 6.5 C3.07633714 9.43621224 2.5578838 10.52571396 1 13 C-0.97387813 8.23947038 -1.0070238 5.03511899 0 0 Z " fill="#FAC5CC" transform="translate(535,360)"/>
  <path d="M0 0 C1.5 1.375 1.5 1.375 3 3 C3 3.66 3 4.32 3 5 C3.66 5 4.32 5 5 5 C4.67 6.98 4.34 8.96 4 11 C3.67 10.34 3.34 9.68 3 9 C2.01 8.67 1.02 8.34 0 8 C0 5.36 0 2.72 0 0 Z " fill="#FFE8EC" transform="translate(478,350)"/>
  <path d="M0 0 C2 1 2 1 3 3 C-2.75 6 -2.75 6 -5 6 C-5 5.34 -5 4.68 -5 4 C-5.66 3.67 -6.32 3.34 -7 3 C-4.69631264 1.93347808 -2.35981813 0.93578995 0 0 Z " fill="#FED3D8" transform="translate(521,541)"/>
  <path d="M0 0 C2.15546298 3.23319447 2.68074747 5.16896958 3 9 C2.01 10.485 2.01 10.485 1 12 C0.01 8.37 -0.98 4.74 -2 1 C-1.34 0.67 -0.68 0.34 0 0 Z " fill="#FDC9D1" transform="translate(536,523)"/>
  <path d="M0 0 C0.99 0.495 0.99 0.495 2 1 C2.6328125 3.06640625 2.6328125 3.06640625 3.125 5.5625 C3.29257812 6.38878906 3.46015625 7.21507812 3.6328125 8.06640625 C3.75398438 8.70449219 3.87515625 9.34257812 4 10 C5.32 10.33 6.64 10.66 8 11 C6.35 11.66 4.7 12.32 3 13 C-0.42857143 4.57142857 -0.42857143 4.57142857 0 0 Z " fill="#D8404E" transform="translate(473,413)"/>
  <path d="M0 0 C1.60897713 4.02244283 0.41146798 7.04788966 -1 11 C-1.96601413 12.35815849 -2.9602356 13.697438 -4 15 C-2.07289294 4.44191344 -2.07289294 4.44191344 0 0 Z " fill="#E14E5B" transform="translate(333,606)"/>
  <path d="M0 0 C0.66 0.33 1.32 0.66 2 1 C2.33 1.99 2.66 2.98 3 4 C4.65 4 6.3 4 8 4 C7.67 4.66 7.34 5.32 7 6 C5.35 6 3.7 6 2 6 C2 6.66 2 7.32 2 8 C1.01 7.67 0.02 7.34 -1 7 C-1 4.37886292 -0.68707555 2.49064888 0 0 Z " fill="#FBC2CA" transform="translate(517,468)"/>
  <path d="M0 0 C4.22222222 6.33333333 4.22222222 6.33333333 3.625 10.8125 C3.41875 11.534375 3.2125 12.25625 3 13 C1.68 13.33 0.36 13.66 -1 14 C-0.67 13.01 -0.34 12.02 0 11 C0.66 11 1.32 11 2 11 C1.67 9.9275 1.34 8.855 1 7.75 C0 4 0 4 0 0 Z " fill="#DE515E" transform="translate(583,432)"/>
  <path d="M0 0 C3.57011026 3.732388 4.10913442 8.0949989 5 13 C3.35 13.66 1.7 14.32 0 15 C0 14.34 0 13.68 0 13 C0.99 13 1.98 13 3 13 C2.1395861 8.66770285 2.1395861 8.66770285 0 5 C-0.04063832 3.33382885 -0.042721 1.66611905 0 0 Z " fill="#DE515E" transform="translate(539,382)"/>
  <path d="M0 0 C2.64 1.65 5.28 3.3 8 5 C6.68 5.33 5.36 5.66 4 6 C3.67 7.32 3.34 8.64 3 10 C2.01 6.7 1.02 3.4 0 0 Z " fill="#D43C4A" transform="translate(467,311)"/>
  <path d="M0 0 C0.33 0 0.66 0 1 0 C1.49230769 7.38461538 1.49230769 7.38461538 -1 10.5 C-1.66 10.995 -2.32 11.49 -3 12 C-4 10 -4 10 -3.22265625 7.6171875 C-2.83980469 6.71226562 -2.45695312 5.80734375 -2.0625 4.875 C-1.68222656 3.96492187 -1.30195313 3.05484375 -0.91015625 2.1171875 C-0.60980469 1.41851563 -0.30945313 0.71984375 0 0 Z " fill="#E75563" transform="translate(368,512)"/>
  <path d="M0 0 C2.64836661 3.12988781 4.0048268 6.0193072 5 10 C4.546875 12.1875 4.546875 12.1875 4 14 C3.32471777 12.42032193 2.66010306 10.83608097 2 9.25 C1.62875 8.36828125 1.2575 7.4865625 0.875 6.578125 C0 4 0 4 0 0 Z " fill="#FFDDE4" transform="translate(531,511)"/>
  <path d="M0 0 C-1 3 -1 3 -4.3125 4.75 C-8.97563098 6.33072237 -8.97563098 6.33072237 -12 5 C-10.68 4.67 -9.36 4.34 -8 4 C-8 3.34 -8 2.68 -8 2 C-2.25 0 -2.25 0 0 0 Z " fill="#FFF0F2" transform="translate(527,472)"/>
  <path d="M0 0 C0.66 0.33 1.32 0.66 2 1 C1 4 1 4 -0.8125 5.25 C-3.33943414 6.11637742 -4.52221994 5.88492145 -7 5 C-5.75 3.5 -5.75 3.5 -4 2 C-2.68 2 -1.36 2 0 2 C0 1.34 0 0.68 0 0 Z " fill="#FFEBEE" transform="translate(545,394)"/>
  <path d="M0 0 C0.99 0.495 0.99 0.495 2 1 C2.6328125 3.72265625 2.6328125 3.72265625 3.125 7.0625 C3.29257812 8.16722656 3.46015625 9.27195312 3.6328125 10.41015625 C3.75398437 11.26480469 3.87515625 12.11945313 4 13 C2 12 2 12 0.875 9.3125 C0.01110926 6.0420565 -0.16013991 3.36293818 0 0 Z " fill="#FFDEE5" transform="translate(537,369)"/>
  <path d="M0 0 C0.33 0.99 0.66 1.98 1 3 C-3.62197306 5.21854707 -6.76824163 6.38281159 -12 6 C-9.4347341 4.28982274 -7.12039035 3.09582189 -4.3125 1.875 C-3.50425781 1.52179688 -2.69601562 1.16859375 -1.86328125 0.8046875 C-1.24839844 0.53914063 -0.63351562 0.27359375 0 0 Z " fill="#DC4251" transform="translate(542,467)"/>
  <path d="M0 0 C0 1.32 0 2.64 0 4 C-1.65 4.66 -3.3 5.32 -5 6 C-5 5.34 -5 4.68 -5 4 C-5.99 3.67 -6.98 3.34 -8 3 C-2.25 0 -2.25 0 0 0 Z " fill="#FDCED4" transform="translate(600,438)"/>
  <path d="M0 0 C-0.33 0.99 -0.66 1.98 -1 3 C-4.57331341 4.7529462 -8.08846628 6.21769326 -12 7 C-12 6.34 -12 5.68 -12 5 C-10.37750059 4.16180842 -8.75191503 3.3295884 -7.125 2.5 C-6.22007812 2.0359375 -5.31515625 1.571875 -4.3828125 1.09375 C-2 0 -2 0 0 0 Z " fill="#DC404E" transform="translate(479,360)"/>
  <path d="M0 0 C-0.99 2.97 -1.98 5.94 -3 9 C-3.33 9 -3.66 9 -4 9 C-4 7.35 -4 5.7 -4 4 C-4.66 4 -5.32 4 -6 4 C-6 3.34 -6 2.68 -6 2 C-2.25 0 -2.25 0 0 0 Z " fill="#DA4D59" transform="translate(579,519)"/>
  <path d="M0 0 C1.0625 1.875 1.0625 1.875 2 4 C1.67 4.66 1.34 5.32 1 6 C-1.64 5.67 -4.28 5.34 -7 5 C-3.375 2 -3.375 2 0 2 C0 1.34 0 0.68 0 0 Z " fill="#FDD7DD" transform="translate(568,383)"/>
  <path d="M0 0 C3.465 1.98 3.465 1.98 7 4 C7 4.66 7 5.32 7 6 C5.35 6.33 3.7 6.66 2 7 C1.34 4.69 0.68 2.38 0 0 Z " fill="#CF424F" transform="translate(503,337)"/>
  <path d="M0 0 C2.57075841 3.01447835 3.52207066 5.35979771 4.1875 9.25 C4.34605469 10.14203125 4.50460937 11.0340625 4.66796875 11.953125 C4.83232422 12.96632813 4.83232422 12.96632813 5 14 C4.34 14 3.68 14 3 14 C-0.44419134 4.58997722 -0.44419134 4.58997722 0 0 Z " fill="#DF4756" transform="translate(472,324)"/>
  <path d="M0 0 C0.66 0 1.32 0 2 0 C2.16435547 0.95712891 2.16435547 0.95712891 2.33203125 1.93359375 C2.49058594 2.75988281 2.64914062 3.58617187 2.8125 4.4375 C2.96332031 5.26121094 3.11414063 6.08492188 3.26953125 6.93359375 C3.51058594 7.61550781 3.75164063 8.29742187 4 9 C4.99 9.33 5.98 9.66 7 10 C5.68 10.33 4.36 10.66 3 11 C2.49632243 9.54293274 1.99717444 8.08429904 1.5 6.625 C1.2215625 5.81289063 0.943125 5.00078125 0.65625 4.1640625 C0 2 0 2 0 0 Z " fill="#DB4653" transform="translate(541,452)"/>
  <path d="M0 0 C-0.33 1.32 -0.66 2.64 -1 4 C-3.64 4 -6.28 4 -9 4 C-3.7826087 0 -3.7826087 0 0 0 Z " fill="#DC4352" transform="translate(589,447)"/>
  <path d="M0 0 C2.29633824 3.44450737 2.54016485 5.93812283 3 10 C2.01 9.67 1.02 9.34 0 9 C-1.1875 5.4375 -1.1875 5.4375 -2 2 C-1.34 2 -0.68 2 0 2 C0 1.34 0 0.68 0 0 Z " fill="#FDC1C8" transform="translate(584,426)"/>
  <path d="M0 0 C0.66 0.33 1.32 0.66 2 1 C1.67 3.64 1.34 6.28 1 9 C0.01 8.67 -0.98 8.34 -2 8 C-1.125 1.125 -1.125 1.125 0 0 Z " fill="#ADAFAC" transform="translate(634,422)"/>
  <path d="M0 0 C0 0.99 0 1.98 0 3 C-0.99 3.33 -1.98 3.66 -3 4 C-3 5.65 -3 7.3 -3 9 C-3.66 9 -4.32 9 -5 9 C-5.33 7.02 -5.66 5.04 -6 3 C-4.02 2.01 -2.04 1.02 0 0 Z " fill="#DD3948" transform="translate(554,394)"/>
  <path d="M0 0 C2.0343459 1.41519715 2.90410393 2.54982123 3.421875 4.98046875 C3.66273952 6.98176954 3.83532741 8.9909944 4 11 C2 10 2 10 0.875 7.75 C-0.00513321 4.98386705 -0.1645438 2.87951649 0 0 Z " fill="#FEDADF" transform="translate(514,376)"/>
  <path d="M0 0 C1.90318884 2.85478326 2.4619099 4.41941308 3.125 7.6875 C3.29257812 8.49574219 3.46015625 9.30398438 3.6328125 10.13671875 C3.75398437 10.75160156 3.87515625 11.36648438 4 12 C3.01 12 2.02 12 1 12 C0.67 8.04 0.34 4.08 0 0 Z " fill="#DF4D59" transform="translate(548,567)"/>
  <path d="M0 0 C2.125 0.9375 2.125 0.9375 4 2 C1.37801226 4.15377564 -0.64404172 5.40072174 -4 6 C-2.25 1.125 -2.25 1.125 0 0 Z " fill="#FCC9CF" transform="translate(514,476)"/>
  <path d="M0 0 C1.5625 1.625 1.5625 1.625 3 4 C2.6875 7.25 2.6875 7.25 2 10 C-0.13262124 6.80106814 -0.59021548 4.77001757 -1 1 C-0.67 0.67 -0.34 0.34 0 0 Z " fill="#FECAD2" transform="translate(544,466)"/>
  <path d="M0 0 C2.45823172 3.68734758 3.01242616 6.69699971 4 11 C3.01 11.33 2.02 11.66 1 12 C0.45533613 7.915021 0 4.1274515 0 0 Z " fill="#FCBDC5" transform="translate(512,366)"/>
  <path d="M0 0 C0.66 0.33 1.32 0.66 2 1 C1.57316368 2.27445454 1.13302798 3.54445882 0.6875 4.8125 C0.44386719 5.52019531 0.20023437 6.22789062 -0.05078125 6.95703125 C-1.06724258 9.14472373 -2.20820594 10.40896718 -4 12 C-3.52309796 10.37433394 -3.04340334 8.74948689 -2.5625 7.125 C-2.29566406 6.22007812 -2.02882813 5.31515625 -1.75390625 4.3828125 C-1 2 -1 2 0 0 Z " fill="#DA4553" transform="translate(327,623)"/>
  <path d="M0 0 C-0.33 0.99 -0.66 1.98 -1 3 C-2.32 3 -3.64 3 -5 3 C-5.33 3.66 -5.66 4.32 -6 5 C-6.66 4.34 -7.32 3.68 -8 3 C-4.93882432 0.37613513 -4.26826873 0 0 0 Z " fill="#FFE9EE" transform="translate(595,442)"/>
  <path d="M0 0 C2.48092261 2.91238742 3.70390197 5.15072555 4 9 C3.01 10.485 3.01 10.485 2 12 C0.70756464 7.8803623 -0.26252625 4.33168317 0 0 Z " fill="#FDD5DC" transform="translate(496,404)"/>
  <path d="M0 0 C0.66 0.33 1.32 0.66 2 1 C2 1.99 2 2.98 2 4 C0.35 4.33 -1.3 4.66 -3 5 C-3.33 4.01 -3.66 3.02 -4 2 C-2.125 0.9375 -2.125 0.9375 0 0 Z " fill="#FCCDD3" transform="translate(501,346)"/>
  <path d="M0 0 C0.33 0.99 0.66 1.98 1 3 C1.66 3.33 2.32 3.66 3 4 C1.02 4.66 -0.96 5.32 -3 6 C-3 5.34 -3 4.68 -3 4 C-3.66 3.67 -4.32 3.34 -5 3 C-3.35 2.67 -1.7 2.34 0 2 C0 1.34 0 0.68 0 0 Z " fill="#FDD9DF" transform="translate(510,341)"/>
  <path d="M0 0 C2.60598877 3.90898316 2.70354328 6.33080658 3 11 C2.34 11.66 1.68 12.32 1 13 C0.83052421 11.58366664 0.66454493 10.16691467 0.5 8.75 C0.4071875 7.96109375 0.314375 7.1721875 0.21875 6.359375 C0 4 0 4 0 0 Z " fill="#FBB7C0" transform="translate(550,564)"/>
  <path d="M0 0 C2 1 2 1 2.6328125 2.84765625 C2.79523437 3.57855469 2.95765625 4.30945313 3.125 5.0625 C3.29257812 5.79597656 3.46015625 6.52945312 3.6328125 7.28515625 C3.75398437 7.85105469 3.87515625 8.41695313 4 9 C3.01 9.495 3.01 9.495 2 10 C0.39644899 6.49223216 -0.22036864 3.85645121 0 0 Z " fill="#FEDBE2" transform="translate(514,459)"/>
  <path d="M0 0 C2.29633824 3.44450737 2.54016485 5.93812283 3 10 C2.01 9.67 1.02 9.34 0 9 C-0.84454356 5.62182575 -1.10844919 3.32534757 0 0 Z " fill="#FCBCC4" transform="translate(540,451)"/>
  <path d="M0 0 C0.66 0 1.32 0 2 0 C2.33 2.97 2.66 5.94 3 9 C2.34 8.67 1.68 8.34 1 8 C0.40644386 5.35139573 0.25790731 2.70802678 0 0 Z " fill="#FFDBE2" transform="translate(467,316)"/>
  <path d="M0 0 C0 1.32 0 2.64 0 4 C-1.32 4.33 -2.64 4.66 -4 5 C-4 4.34 -4 3.68 -4 3 C-4.66 2.67 -5.32 2.34 -6 2 C-2.25 0 -2.25 0 0 0 Z " fill="#FECFD5" transform="translate(560,456)"/>
  <path d="M0 0 C0.33 0 0.66 0 1 0 C1 2.31 1 4.62 1 7 C-0.98 7.99 -0.98 7.99 -3 9 C-2.01 6.03 -1.02 3.06 0 0 Z " fill="#E34E5C" transform="translate(730,448)"/>
  <path d="M0 0 C0.66 0 1.32 0 2 0 C2.625 2.8125 2.625 2.8125 3 6 C2.34 6.99 1.68 7.98 1 9 C0.67 6.03 0.34 3.06 0 0 Z " fill="#FED1D8" transform="translate(562,446)"/>
  <path d="M0 0 C0 0.99 0 1.98 0 3 C-1.32 3.33 -2.64 3.66 -4 4 C-4 4.66 -4 5.32 -4 6 C-4.66 6 -5.32 6 -6 6 C-5.8125 4.125 -5.8125 4.125 -5 2 C-2.4375 0.75 -2.4375 0.75 0 0 Z " fill="#DB4453" transform="translate(571,522)"/>
  <path d="M0 0 C0.66 0.66 1.32 1.32 2 2 C4.10820797 1.6814823 4.10820797 1.6814823 6 1 C5.34 2.65 4.68 4.3 4 6 C3.67 5.34 3.34 4.68 3 4 C2.01 4 1.02 4 0 4 C0 2.68 0 1.36 0 0 Z " fill="#FBCDD3" transform="translate(494,482)"/>
  <path d="M0 0 C-0.33 1.65 -0.66 3.3 -1 5 C-1.33 4.34 -1.66 3.68 -2 3 C-3.98 3.33 -5.96 3.66 -8 4 C-2.7826087 0 -2.7826087 0 0 0 Z " fill="#D64F5A" transform="translate(610,437)"/>
  <path d="M0 0 C-0.33 0.99 -0.66 1.98 -1 3 C-1.99 3 -2.98 3 -4 3 C-4 3.66 -4 4.32 -4 5 C-5.32 4.67 -6.64 4.34 -8 4 C-3.375 0 -3.375 0 0 0 Z " fill="#E45461" transform="translate(753,418)"/>
  <path d="M0 0 C2 1.3125 2 1.3125 4 3 C4 3.99 4 4.98 4 6 C2.68 5.67 1.36 5.34 0 5 C0 3.35 0 1.7 0 0 Z " fill="#ABADAA" transform="translate(769,394)"/>
</svg>